<svg width="225" height="63" viewBox="0 0 225 63" fill="none" xmlns="http://www.w3.org/2000/svg">
<path d="M93.19 38.65V43H90.58C88.72 43 87.27 42.55 86.23 41.65C85.19 40.73 84.67 39.24 84.67 37.18V30.52H82.63V26.26H84.67V22.18H89.8V26.26H93.16V30.52H89.8V37.24C89.8 37.74 89.92 38.1 90.16 38.32C90.4 38.54 90.8 38.65 91.36 38.65H93.19ZM101.178 29.05C101.778 28.13 102.528 27.41 103.428 26.89C104.328 26.35 105.328 26.08 106.428 26.08V31.51H105.018C103.738 31.51 102.778 31.79 102.138 32.35C101.498 32.89 101.178 33.85 101.178 35.23V43H96.0475V26.26H101.178V29.05ZM124.66 34.36C124.66 34.84 124.63 35.34 124.57 35.86H112.96C113.04 36.9 113.37 37.7 113.95 38.26C114.55 38.8 115.28 39.07 116.14 39.07C117.42 39.07 118.31 38.53 118.81 37.45H124.27C123.99 38.55 123.48 39.54 122.74 40.42C122.02 41.3 121.11 41.99 120.01 42.49C118.91 42.99 117.68 43.24 116.32 43.24C114.68 43.24 113.22 42.89 111.94 42.19C110.66 41.49 109.66 40.49 108.94 39.19C108.22 37.89 107.86 36.37 107.86 34.63C107.86 32.89 108.21 31.37 108.91 30.07C109.63 28.77 110.63 27.77 111.91 27.07C113.19 26.37 114.66 26.02 116.32 26.02C117.94 26.02 119.38 26.36 120.64 27.04C121.9 27.72 122.88 28.69 123.58 29.95C124.3 31.21 124.66 32.68 124.66 34.36ZM119.41 33.01C119.41 32.13 119.11 31.43 118.51 30.91C117.91 30.39 117.16 30.13 116.26 30.13C115.4 30.13 114.67 30.38 114.07 30.88C113.49 31.38 113.13 32.09 112.99 33.01H119.41ZM134.176 43.24C132.716 43.24 131.416 42.99 130.276 42.49C129.136 41.99 128.236 41.31 127.576 40.45C126.916 39.57 126.546 38.59 126.466 37.51H131.536C131.596 38.09 131.866 38.56 132.346 38.92C132.826 39.28 133.416 39.46 134.116 39.46C134.756 39.46 135.246 39.34 135.586 39.1C135.946 38.84 136.126 38.51 136.126 38.11C136.126 37.63 135.876 37.28 135.376 37.06C134.876 36.82 134.066 36.56 132.946 36.28C131.746 36 130.746 35.71 129.946 35.41C129.146 35.09 128.456 34.6 127.876 33.94C127.296 33.26 127.006 32.35 127.006 31.21C127.006 30.25 127.266 29.38 127.786 28.6C128.326 27.8 129.106 27.17 130.126 26.71C131.166 26.25 132.396 26.02 133.816 26.02C135.916 26.02 137.566 26.54 138.766 27.58C139.986 28.62 140.686 30 140.866 31.72H136.126C136.046 31.14 135.786 30.68 135.346 30.34C134.926 30 134.366 29.83 133.666 29.83C133.066 29.83 132.606 29.95 132.286 30.19C131.966 30.41 131.806 30.72 131.806 31.12C131.806 31.6 132.056 31.96 132.556 32.2C133.076 32.44 133.876 32.68 134.956 32.92C136.196 33.24 137.206 33.56 137.986 33.88C138.766 34.18 139.446 34.68 140.026 35.38C140.626 36.06 140.936 36.98 140.956 38.14C140.956 39.12 140.676 40 140.116 40.78C139.576 41.54 138.786 42.14 137.746 42.58C136.726 43.02 135.536 43.24 134.176 43.24ZM146.674 24.52C145.774 24.52 145.034 24.26 144.454 23.74C143.894 23.2 143.614 22.54 143.614 21.76C143.614 20.96 143.894 20.3 144.454 19.78C145.034 19.24 145.774 18.97 146.674 18.97C147.554 18.97 148.274 19.24 148.834 19.78C149.414 20.3 149.704 20.96 149.704 21.76C149.704 22.54 149.414 23.2 148.834 23.74C148.274 24.26 147.554 24.52 146.674 24.52ZM149.224 26.26V43H144.094V26.26H149.224ZM158.072 28.63C158.572 27.85 159.262 27.22 160.142 26.74C161.022 26.26 162.052 26.02 163.232 26.02C164.612 26.02 165.862 26.37 166.982 27.07C168.102 27.77 168.982 28.77 169.622 30.07C170.282 31.37 170.612 32.88 170.612 34.6C170.612 36.32 170.282 37.84 169.622 39.16C168.982 40.46 168.102 41.47 166.982 42.19C165.862 42.89 164.612 43.24 163.232 43.24C162.072 43.24 161.042 43 160.142 42.52C159.262 42.04 158.572 41.42 158.072 40.66V50.98H152.942V26.26H158.072V28.63ZM165.392 34.6C165.392 33.32 165.032 32.32 164.312 31.6C163.612 30.86 162.742 30.49 161.702 30.49C160.682 30.49 159.812 30.86 159.092 31.6C158.392 32.34 158.042 33.35 158.042 34.63C158.042 35.91 158.392 36.92 159.092 37.66C159.812 38.4 160.682 38.77 161.702 38.77C162.722 38.77 163.592 38.4 164.312 37.66C165.032 36.9 165.392 35.88 165.392 34.6ZM189.833 26.26V43H184.703V40.72C184.183 41.46 183.473 42.06 182.573 42.52C181.693 42.96 180.713 43.18 179.633 43.18C178.353 43.18 177.223 42.9 176.243 42.34C175.263 41.76 174.503 40.93 173.963 39.85C173.423 38.77 173.153 37.5 173.153 36.04V26.26H178.253V35.35C178.253 36.47 178.543 37.34 179.123 37.96C179.703 38.58 180.483 38.89 181.463 38.89C182.463 38.89 183.253 38.58 183.833 37.96C184.413 37.34 184.703 36.47 184.703 35.35V26.26H189.833ZM203.718 26.08C205.678 26.08 207.238 26.72 208.398 28C209.578 29.26 210.168 31 210.168 33.22V43H205.068V33.91C205.068 32.79 204.778 31.92 204.198 31.3C203.618 30.68 202.838 30.37 201.858 30.37C200.878 30.37 200.098 30.68 199.518 31.3C198.938 31.92 198.648 32.79 198.648 33.91V43H193.518V26.26H198.648V28.48C199.168 27.74 199.868 27.16 200.748 26.74C201.628 26.3 202.618 26.08 203.718 26.08ZM223.063 38.65V43H220.453C218.593 43 217.143 42.55 216.103 41.65C215.063 40.73 214.543 39.24 214.543 37.18V30.52H212.503V26.26H214.543V22.18H219.673V26.26H223.033V30.52H219.673V37.24C219.673 37.74 219.793 38.1 220.033 38.32C220.273 38.54 220.673 38.65 221.233 38.65H223.063Z" fill="#333333"/>
<path d="M63 0H0V63H63V0Z" fill="#F84015"/>
<path d="M25.5346 34.6317C24.2989 36.3316 22.0034 36.9134 19.6634 36.9134C17.6773 36.9134 15.8227 36.1981 14.6315 34.9454C13.7487 34.051 13.2633 32.8873 13.1309 31.322H17.015C17.1474 32.8428 18.3842 33.4691 19.7524 33.4691C20.9001 33.4691 22.4008 33.0664 22.4008 31.5901C22.4008 30.3375 21.518 29.8457 20.0608 29.8457H18.8696V26.5795H20.0608C21.164 26.5795 22.0479 26.2213 22.0479 24.9697C22.0479 23.717 20.8556 23.2253 19.7959 23.2253C18.2952 23.2253 17.2799 23.8961 17.1029 25.4625H13.2623C13.3947 23.7181 14.0126 22.4209 14.9844 21.5264C16.1767 20.4529 17.8533 19.871 19.7959 19.871C21.9589 19.871 24.0784 20.632 25.2696 22.1973C25.7995 22.9137 26.1524 23.5845 26.1524 24.7471C26.1524 26.2234 25.2251 27.6552 23.857 28.1024C25.4021 28.5941 26.4619 30.1605 26.4619 31.7703C26.4619 32.9763 26.0645 33.9153 25.5346 34.6317Z" fill="white"/>
<path d="M37.5086 19.8688H31.9023V43.1311H37.5086V19.8688Z" fill="white"/>
<path d="M49.8673 37.4051H43.9961V43.1311H49.8673V37.4051Z" fill="white"/>
</svg>
