<svg width="635" height="491" viewBox="0 0 635 491" fill="none" xmlns="http://www.w3.org/2000/svg">
<path d="M464.036 465.03H227.34L268.953 412.673H422.424L464.036 465.03Z" fill="white"/>
<path d="M559.216 332.417L589.769 294.536L582.886 252.713H570.249C567.176 233.194 559.216 192.528 559.216 192.528L531.711 161.87L505.02 183.281C505.02 183.281 492.805 169.068 493.567 161.87C494.328 154.698 494.328 131.134 494.328 131.134L448.513 108.357L413.599 121.072L393.556 83.3743L363.791 77.4897L346.741 89.2851L282.747 78.094L279.489 90.2046L254.506 83.3743L226.266 76.5703L221.563 103.103L183.602 88.3919L155.361 123.804L158.409 156.17L125.019 161.87L104.213 141.984L78.2576 171.932L81.3054 205.873L81.4891 226.338L69.0896 220.506L51.7245 229.621L53.8261 289.098L77.4962 302.732L53.8261 317.391L61.0772 339.038L47.706 361.762L75.9466 372.217L56.1125 404.267H589.769L607.055 335.123L559.216 332.417Z" fill="#f85455"/>
<path d="M359.113 199.542C363.474 179.156 350.443 159.086 330.058 154.751C309.672 150.39 289.601 163.394 285.267 183.806C280.906 204.192 293.91 224.262 314.295 228.597C334.708 232.958 354.752 219.954 359.113 199.542Z" fill="#212529"/>
<path d="M378.661 257.888C378.818 257.363 378.95 256.864 379.055 256.338C381.787 243.571 373.643 231.014 360.876 228.308C359.536 228.019 358.197 227.861 356.883 227.809C356.463 227.73 356.226 227.677 356.226 227.677C356.226 227.677 378.188 165.837 328.222 156.091C294.044 149.444 282.459 179.182 278.571 198.754C277.441 198.281 276.233 198.018 274.946 198.018C270.27 198.018 266.382 201.433 265.62 205.873C252.117 203.587 239.06 212.335 236.171 225.865C236.118 226.18 236.065 226.495 236.013 226.81C225.426 227.887 217.177 236.793 217.177 247.643C217.177 259.176 226.555 268.554 238.114 268.554C238.219 268.554 238.325 268.554 238.43 268.554C240.033 269.368 241.766 269.999 243.605 270.393C248.098 271.365 252.59 270.761 256.478 268.948C265.068 271.575 273.658 274.202 282.249 276.829C290.708 279.404 299.167 282.057 307.653 284.579C315.981 287.048 324.387 289.334 333.004 290.7C340.359 291.882 348.03 292.513 355.491 291.698C357.435 292.907 359.615 293.8 361.953 294.299C373.04 296.663 383.968 289.597 386.333 278.511C388.04 270.472 384.808 262.538 378.661 257.888Z" fill="#212529"/>
<path d="M494.199 311.401C455.135 270.866 415.204 246.145 415.204 246.145L374.143 253.028C368.495 251.163 362.453 250.191 356.2 250.244H285.376C246.47 241.312 223.956 244.911 191.249 276.146C167.632 298.739 141.572 319.23 130.591 331.104C99.6446 364.651 102.981 389.871 123.629 404.267C143.91 418.427 183.367 418.427 209.874 404.897L255.953 404.293L392.822 404.267V373.268C411.842 392.104 445.074 416.167 486.344 409.994C519.287 405.081 541.275 360.211 494.199 311.401Z" fill="#212529"/>
<path d="M254.192 247.092C233.333 247.092 215.153 254.842 192.009 276.961C180.607 287.837 168.681 298.24 158.12 307.409C146.824 317.234 137.051 325.745 131.403 331.866C115.273 349.336 107.524 365.86 109.021 379.626C110.046 389.031 115.168 397.043 124.258 403.374C143.987 417.166 182.972 417.403 209.374 403.9C209.505 403.821 209.689 403.795 209.847 403.795L255.925 403.19L391.717 403.164V373.268C391.717 372.822 391.979 372.428 392.4 372.244C392.82 372.086 393.293 372.165 393.608 372.48C413.705 392.393 446.07 414.907 486.185 408.917C500.791 406.737 512.902 396.465 517.788 382.122C524.934 361.132 516.028 335.623 493.409 312.164C456.447 273.809 414.441 253.554 410.815 251.873L374.221 254.132C374.063 254.132 373.931 254.106 373.8 254.08C368.125 252.215 362.136 251.295 356.225 251.348H285.374C285.269 251.348 285.164 251.321 285.059 251.295C273.737 248.694 263.675 247.092 254.192 247.092ZM165.029 416.037C148.794 416.037 133.347 412.411 122.997 405.187C113.487 398.541 107.892 389.793 106.815 379.862C105.239 365.23 112.962 348.574 129.775 330.369C135.502 324.143 145.326 315.631 156.675 305.754C167.21 296.585 179.137 286.208 190.486 275.359C224.926 242.468 248.569 240.682 285.531 249.141H356.199C362.372 249.088 368.441 250.008 374.273 251.899L410.972 249.64C411.156 249.64 411.34 249.666 411.498 249.745C411.944 249.955 456.237 270.42 495.012 310.64C518.209 334.73 527.271 361.026 519.863 382.831C514.74 397.963 501.947 408.786 486.5 411.098C481.902 411.781 477.384 412.096 472.971 412.096C439.423 412.096 412.103 393.392 393.923 375.869V404.267C393.923 404.898 393.424 405.371 392.82 405.371L255.952 405.397L210.135 405.975C196.895 412.7 180.608 416.037 165.029 416.037Z" fill="#212529"/>
<path d="M311.015 283.659C332.793 283.659 351.866 264.849 363.188 250.61C360.903 250.348 358.564 250.216 356.2 250.243H285.375C275.708 248.01 267.065 246.565 259.026 246.144C265.83 257.861 283.904 283.659 311.015 283.659Z" fill="white"/>
<path d="M258.133 400.038C257.528 400.038 257.028 399.539 257.028 398.934V357.322C244.051 356.744 233.674 346 233.674 332.864C233.674 319.756 244.051 309.011 257.028 308.433V297.189C257.028 296.585 257.528 296.086 258.133 296.086C258.737 296.086 259.236 296.585 259.236 297.189V309.51C259.236 310.114 258.737 310.613 258.133 310.613C245.864 310.613 235.881 320.596 235.881 332.864C235.881 345.159 245.864 355.142 258.133 355.142C258.737 355.142 259.236 355.641 259.236 356.245V398.934C259.236 399.539 258.737 400.038 258.133 400.038Z" fill="white"/>
<path d="M392.819 375.605C392.215 375.605 391.716 375.106 391.716 374.502V356.244C391.716 355.64 392.215 355.141 392.819 355.141C399.597 355.141 405.928 352.093 410.183 346.813C410.551 346.34 411.261 346.261 411.734 346.655C412.207 347.023 412.285 347.733 411.891 348.205C407.451 353.722 400.963 357.006 393.922 357.321V374.502C393.922 375.106 393.423 375.605 392.819 375.605Z" fill="white"/>
<path d="M299.85 225.524L294.176 252.162L326.62 259.097L332.294 232.433L299.85 225.524Z" fill="white"/>
<path d="M327.038 258.203C326.959 258.203 326.88 258.203 326.802 258.177C326.197 258.071 325.83 257.467 325.961 256.889L330.978 233.298L300.689 226.836L295.671 250.427C295.54 251.005 294.962 251.399 294.358 251.267C293.753 251.136 293.386 250.558 293.517 249.954L298.771 225.286C298.903 224.708 299.481 224.314 300.085 224.445L332.529 231.354C332.818 231.433 333.054 231.591 333.211 231.854C333.369 232.09 333.448 232.379 333.369 232.668L328.115 257.336C328.01 257.861 327.537 258.203 327.038 258.203Z" fill="#212529"/>
<path d="M331.479 236.321L299.246 228.361L296.119 243.072C299.587 247.013 304.315 250.034 310.62 251.61C317.372 253.265 323.309 252.582 328.484 250.375L331.479 236.321Z" fill="#212529"/>
<path d="M330.165 167.229C313.535 163.104 296.801 172.903 292.782 189.112C288.762 205.321 286.739 236.189 311.538 242.336C336.364 248.483 348.974 220.242 352.993 204.034C357.013 187.825 346.794 171.353 330.165 167.229Z" fill="white"/>
<path d="M322.52 167.387C309.175 167.387 297.117 176.187 293.86 189.375C292.704 193.946 283.587 234.271 311.802 241.259C322.284 243.86 331.505 240.366 339.202 230.882C347.004 221.293 350.683 208.736 351.917 203.771C353.783 196.231 352.522 188.377 348.371 181.678C344.22 174.979 337.652 170.224 329.903 168.306C327.433 167.675 324.963 167.387 322.52 167.387ZM318.238 244.28C315.979 244.28 313.641 243.991 311.276 243.413C288.264 237.712 286.346 210.444 291.705 188.849C295.856 172.089 313.221 161.896 330.428 166.152C338.756 168.227 345.796 173.324 350.262 180.522C354.728 187.72 356.068 196.179 354.071 204.296C352.81 209.393 348.975 222.344 340.91 232.274C334.473 240.208 326.723 244.28 318.238 244.28Z" fill="#212529"/>
<path d="M321.733 216.565C321.68 216.565 321.628 216.565 321.601 216.565C320.997 216.486 320.551 215.935 320.63 215.33L322.364 200.882C322.443 200.278 322.994 199.831 323.572 199.91C324.176 199.989 324.622 200.54 324.544 201.144L322.81 215.593C322.758 216.145 322.284 216.565 321.733 216.565Z" fill="#212529"/>
<path d="M330.086 157.43C297.169 151.808 286.582 189.558 286.582 189.558C286.582 189.558 268.377 257.73 294.174 252.161C313.431 248.01 300.558 194.97 300.558 194.97C300.558 194.97 304.998 193.079 311.986 187.667C314.482 185.749 317.003 183.017 319.288 180.232C316.845 184.725 315.926 188.875 320.602 189.164C331.005 189.769 341.724 176.607 341.724 176.607C341.724 176.607 339.307 193.604 353.598 201.485C355.831 179.865 346.19 160.188 330.086 157.43Z" fill="#212529"/>
<path d="M320.602 222.896C320.076 222.896 319.63 222.528 319.525 221.976C319.42 221.372 319.814 220.82 320.418 220.715L326.592 219.612C327.196 219.507 327.748 219.901 327.853 220.505C327.958 221.109 327.564 221.687 326.96 221.792L320.812 222.869C320.733 222.895 320.681 222.896 320.602 222.896Z" fill="#212529"/>
<path d="M587.089 405.369H209.872C209.241 405.369 208.769 404.896 208.769 404.266C208.769 403.662 209.241 403.163 209.872 403.163H587.089C587.719 403.163 588.192 403.662 588.192 404.266C588.192 404.896 587.719 405.369 587.089 405.369Z" fill="#212529"/>
<path d="M143.907 405.369H49.9906C49.3864 405.369 48.8875 404.896 48.8875 404.266C48.8875 403.662 49.3864 403.163 49.9906 403.163H143.907C144.511 403.163 145.01 403.662 145.01 404.266C145.01 404.896 144.511 405.369 143.907 405.369Z" fill="#212529"/>
<path d="M253.64 39.661C253.64 39.7398 253.64 39.8186 253.64 39.8974C254.559 39.3194 255.531 38.7678 256.503 38.2686C255.531 38.6889 254.585 39.1618 253.64 39.661ZM312.906 43.2863C314.614 43.4439 316.373 43.654 318.107 43.9693C318.054 43.7066 318.002 43.4439 317.95 43.1812C316.373 34.0916 320.839 23.7411 329.088 17.4625C332.582 14.7829 336.365 12.9703 340.148 11.7618C336.733 10.1331 332.871 8.66193 328.458 7.3484C312.617 2.61974 298.299 1.91043 285.9 5.24677C271.136 9.23987 259.287 19.5378 254.926 32.1476C254.322 33.934 253.928 35.589 253.744 37.139C256.345 35.8255 259.052 34.8535 261.81 34.2492C265.252 33.4874 268.797 33.3298 272.213 33.7238C277.151 33.1196 282.563 33.0933 288.5 33.5925C294.7 34.1442 302.608 35.3264 308.939 39.7398C310.436 40.7906 311.75 41.999 312.906 43.2863ZM279.489 35.4577C283.43 36.9026 286.977 39.1618 289.788 42.1041C290.471 42.7872 291.048 43.4965 291.521 44.2058C295.015 43.4176 298.641 43.1812 302.056 43.0761C304.42 42.9973 306.942 42.971 309.596 43.1023C308.991 42.5244 308.334 41.999 307.678 41.5524C301.767 37.428 294.227 36.2984 288.317 35.7992C285.217 35.5365 282.274 35.4052 279.489 35.4577ZM254.034 42.2617C256.424 51.5352 268.377 53.9783 276.968 54.53C277.94 52.4021 279.359 50.4581 281.119 48.987C283.509 46.9904 286.294 45.6769 289.236 44.7837C288.921 44.4159 288.579 44.0218 288.185 43.6278C284.14 39.372 278.387 36.6924 272.239 35.9306C267.011 36.5873 262.388 37.9009 258.237 39.8711C256.766 40.5804 255.347 41.3685 254.034 42.2617ZM279.385 54.6351C279.516 54.6351 279.648 54.635 279.805 54.6613C281.513 54.6876 290.234 54.6351 290.917 49.5124C291.022 48.6454 290.865 47.6997 290.418 46.754C287.528 47.5421 284.822 48.7768 282.51 50.6945C281.249 51.7453 280.173 53.1114 279.385 54.6351ZM320.498 44.4422C323.466 45.0989 326.435 46.0709 329.246 47.437C335.078 50.2479 339.623 54.6614 342.25 59.7053C346.085 59.3112 349.789 57.7087 352.863 55.2918C353.362 54.0046 354.098 52.8487 355.07 51.7979C355.911 50.9047 356.908 50.1691 357.985 49.5912C359.22 47.6472 360.087 45.4667 360.533 43.2075C362.083 35.3001 358.774 26.2893 351.891 19.6692C349.395 17.2523 346.453 15.1244 343.011 13.2329C338.729 14.3363 334.369 16.2015 330.428 19.1963C322.81 25.0021 318.685 34.4857 320.13 42.8134C320.235 43.3651 320.34 43.8905 320.498 44.4422ZM321.365 46.9116C324.438 54.1096 331.926 59.5476 339.754 59.8103C337.022 55.1868 332.635 51.5351 328.274 49.4072C326.067 48.3302 323.729 47.5158 321.365 46.9116ZM278.438 56.8155C278.018 58.1291 277.756 59.5214 277.756 60.8612C277.756 62.884 278.229 65.6949 280.646 67.744C281.408 67.2974 282.17 66.8771 282.958 66.5093C287.476 64.3551 292.283 64.3289 296.198 66.4042C296.565 66.6144 296.907 66.8245 297.248 67.0347C299.009 63.4619 302.029 60.4146 305.76 58.5231C308.991 56.8681 312.354 56.2901 315.533 56.7892C315.98 52.6123 314.298 48.5666 311.776 45.4142C308.387 45.1777 305.104 45.204 302.135 45.2828C299.035 45.3616 295.751 45.5981 292.599 46.2286C293.072 47.437 293.255 48.6454 293.098 49.8013C292.204 56.6053 282.668 56.9206 279.752 56.8418C279.332 56.8418 278.885 56.8418 278.438 56.8155ZM299.061 68.4007C299.612 68.8999 300.112 69.3991 300.559 69.9507C307.363 68.5059 313.299 64.9856 315.086 58.9434C312.406 58.5493 309.516 59.0485 306.758 60.4671C303.369 62.2009 300.584 65.1169 299.061 68.4007ZM282.747 69.0838C284.954 70.1346 287.554 70.4761 289.945 70.66C291.915 70.7914 293.939 70.7913 295.962 70.6337C295.962 70.6075 295.987 70.5812 295.987 70.5549C296.092 70.0558 296.224 69.5829 296.408 69.11C296.014 68.8473 295.593 68.5846 295.147 68.3482C291.837 66.5881 287.817 66.6144 283.903 68.4796C283.509 68.6897 283.115 68.8736 282.747 69.0838ZM354.676 56.7367C354.098 58.6545 354.281 60.5722 354.623 62.0696C355.621 66.4568 358.878 70.6863 362.898 73.1032C362.346 71.2117 362.11 69.3202 362.268 67.4025C362.609 62.9365 365.893 58.6544 370.438 56.7629C371.804 56.185 373.169 55.896 374.457 55.8698C373.458 54.5037 372.251 53.3216 370.885 52.4021C367.469 50.1166 362.977 49.7751 359.562 51.2988C358.222 53.3478 356.567 55.1868 354.676 56.7367ZM377.373 56.2901C378.424 56.6316 379.396 57.1833 380.263 57.9451C382.47 59.8366 383.888 62.8577 384.439 66.9296C384.755 69.1889 384.807 71.4481 384.65 73.7336C386.594 72.8667 388.433 71.7896 390.114 70.4498C401.016 61.7543 403.118 43.549 394.712 30.6502C392.032 26.5783 388.485 23.0318 384.256 20.1684C378.503 21.692 373.748 25.291 371.515 29.9672C369.991 33.1196 369.912 36.4034 371.252 38.7677C373.301 42.3142 378.135 43.1549 381.891 42.1829C386.068 41.0795 389.667 38.0847 392.846 35.4577C393.293 35.0637 394.002 35.1162 394.397 35.5891C394.791 36.0619 394.711 36.7449 394.238 37.139C390.902 39.9236 387.093 43.0761 382.443 44.3108C377.899 45.5192 371.935 44.3634 369.334 39.8448C367.626 36.8763 367.706 32.8307 369.519 29.0215C371.778 24.2928 376.296 20.5624 381.839 18.6184C374.588 14.31 365.735 11.8144 356.409 11.683C353.414 11.6567 349.868 11.8406 346.164 12.5237C348.896 14.205 351.287 16.0439 353.415 18.093C360.823 25.2122 364.396 35.0111 362.688 43.6278C362.373 45.3091 361.847 46.9379 361.138 48.4615C364.737 47.6734 368.809 48.3302 372.119 50.5894C374.221 51.9817 376.007 53.9521 377.373 56.2901ZM297.826 72.6828C297.721 73.4184 297.669 74.1803 297.642 74.9421C298.115 74.6269 298.614 74.3641 299.14 74.1277C299.534 73.9438 299.981 73.7862 300.401 73.6548C300.164 73.2345 299.902 72.8142 299.639 72.4201C299.035 72.5252 298.43 72.604 297.826 72.6828ZM378.949 59.7053C379.659 61.6756 380.106 63.7772 380.29 65.9839C380.526 69.1101 380.184 72.2888 379.37 75.3887C380.368 75.1785 381.366 74.9158 382.338 74.6006C382.627 72.1312 382.601 69.688 382.26 67.2449C381.787 63.8035 380.657 61.2552 378.949 59.7053ZM365.787 74.4429C369.36 75.7302 373.196 76.1505 376.979 75.7564C377.925 72.5777 378.345 69.3465 378.082 66.1415C377.872 63.2518 377.11 60.5459 375.902 58.2078C374.483 57.9451 372.907 58.1291 371.279 58.7858C367.548 60.3358 364.737 63.9611 364.448 67.5864C364.291 70.0033 364.789 72.315 365.787 74.4429ZM367.39 77.2538C369.019 79.6182 371.173 81.6936 373.406 83.3749C374.509 81.6673 375.429 79.8547 376.164 78.0157C373.222 78.2259 370.254 77.9631 367.39 77.2538ZM375.219 84.6096C375.324 84.6884 375.429 84.7409 375.534 84.8197C376.532 85.4239 377.583 86.0019 378.634 86.5273C380.211 83.4799 381.34 80.2487 381.97 77.0174C380.867 77.3327 379.764 77.5691 378.608 77.753C377.767 80.1174 376.638 82.4291 375.219 84.6096ZM296.198 80.9843C296.014 82.4817 296.407 83.9265 297.353 85.2926C297.668 85.7655 298.036 86.2121 298.483 86.6324C297.485 84.8198 296.723 82.9283 296.198 80.9843ZM304 73.1294C305.97 73.1294 307.914 73.6023 309.569 74.4955C315.059 77.5428 317.74 83.8214 319.263 88.4188C319.526 88.1823 319.788 87.9459 320.025 87.7095C324.464 83.3749 326.619 76.1505 325.384 69.7143C324.439 64.8805 321.759 61.334 317.818 59.7053C317.608 59.6265 317.424 59.5476 317.241 59.4688C315.297 66.2203 309.201 70.2134 301.977 71.9472C302.24 72.3413 302.476 72.7616 302.686 73.2082C303.133 73.1557 303.553 73.1294 304 73.1294ZM297.826 77.6479C298.325 81.4834 299.954 85.3451 302.476 88.7078C302.607 87.9459 302.713 87.1578 302.792 86.3697C303.133 82.9283 302.712 79.0402 301.373 75.6776C300.9 75.809 300.454 75.9666 300.034 76.1505C299.167 76.5446 298.404 77.0437 297.826 77.6479ZM380.63 87.4468C395.814 93.9093 415.15 90.5992 426.893 78.9352C434.17 71.7108 437.9 62.2272 436.876 53.558C434.932 36.9288 417.226 27.3927 409.712 24.0826C401.463 20.431 394.791 18.9336 388.696 19.4065C388.197 19.4328 387.697 19.4853 387.198 19.5641C390.928 22.3751 394.107 25.7114 396.55 29.4418C405.561 43.2337 403.249 62.8052 391.48 72.1574C389.326 73.8913 386.909 75.231 384.335 76.2293C383.757 80.0648 382.469 83.8477 380.63 87.4468ZM319.92 90.7569C319.946 90.8357 319.972 90.9145 319.972 91.0196C325.909 89.8899 331.557 87.3679 335.656 83.8214C340.174 79.8546 342.591 74.9158 342.565 69.5567C342.565 66.8771 341.96 64.3551 340.91 62.017C340.647 62.017 340.411 62.017 340.148 62.017C330.612 61.9119 321.785 55.2393 318.763 46.3336C317.424 46.0709 316.058 45.8608 314.718 45.7032C317.056 49.3022 318.16 53.4266 317.687 57.2884C318.002 57.3934 318.317 57.5248 318.659 57.6562C323.309 59.5739 326.461 63.7246 327.538 69.3202C328.904 76.4395 326.514 84.4782 321.575 89.2857C321.05 89.8111 320.498 90.284 319.92 90.7569ZM304.394 90.2315C305.865 90.7831 307.362 91.1509 308.728 91.3348C310.751 91.6238 312.8 91.7026 314.902 91.5975C315.795 91.0984 316.636 90.5204 317.45 89.9162C317.397 89.7323 317.345 89.5484 317.266 89.3908C315.874 85.135 313.431 79.1453 308.518 76.4395C307.073 75.6514 305.34 75.2573 303.632 75.3362C304.998 79.0666 305.34 83.1647 304.998 86.5798C304.867 87.8145 304.656 89.023 304.394 90.2315ZM306.81 93.2262C307.152 93.5152 307.494 93.7779 307.836 94.0144C308.019 94.172 308.203 94.3034 308.413 94.4347C309.096 94.2245 309.753 93.9881 310.384 93.7517C309.727 93.6991 309.097 93.6203 308.44 93.5153C307.915 93.4627 307.388 93.3576 306.81 93.2262ZM252.116 43.6278C245.679 48.6191 241.502 55.6596 241.003 62.8577C240.32 72.6829 246.336 82.9283 256.371 88.9705C262.519 92.6746 269.481 94.5661 275.917 95.5381C273.001 90.7831 271.477 85.135 272.633 79.2767C273.395 75.3887 275.654 71.7896 278.859 69.11C276.705 67.0872 275.522 64.1712 275.549 60.8612C275.549 59.4426 275.786 58.0502 276.18 56.6842C267.248 56.0274 255.242 53.2953 252.116 43.6278ZM303.553 93.2788C303.264 94.1194 302.949 94.9601 302.607 95.8008C303.658 95.6169 304.709 95.4067 305.707 95.1703C304.945 94.5661 304.236 93.9355 303.553 93.2788ZM278.807 95.9321C281.986 96.2999 285.007 96.4838 287.607 96.5889C292.178 96.7465 296.303 96.6151 300.034 96.1685C300.743 94.6711 301.321 93.1212 301.793 91.545C299.35 90.3891 297.038 88.734 295.514 86.5273C294.096 84.4519 293.623 82.1402 294.175 79.8021C294.411 78.7513 294.857 77.8056 295.514 76.9649C295.383 75.5988 295.41 74.2328 295.568 72.893C293.65 72.9981 291.706 72.9981 289.788 72.8405C286.793 72.6303 283.43 72.1574 280.671 70.4761C277.65 72.8405 275.497 76.1505 274.787 79.697C273.631 85.6078 275.523 91.3085 278.807 95.9321ZM310.804 95.9321C313.274 97.3507 316.006 98.4803 319.001 99.321C318.764 97.1668 318.527 95.2228 318.238 93.5415C317.319 93.6728 316.426 93.7516 315.506 93.8042C314.035 94.6186 312.459 95.3279 310.804 95.9321ZM321.259 99.899C324.963 100.74 329.035 101.186 333.423 101.265C341.934 101.344 354.045 100.03 364.08 93.0687C367.232 90.862 369.965 88.1824 372.171 85.1876C368.546 82.5605 365.84 79.4606 364.159 76.1768C358.563 73.865 353.782 68.3482 352.469 62.5687C352.153 61.1764 352.048 59.8366 352.127 58.5493C349.421 60.2307 346.4 61.3866 343.222 61.8069C344.22 64.3026 344.771 66.9296 344.771 69.5567C344.771 75.5726 342.118 81.0893 337.1 85.4765C332.661 89.3382 326.698 92.0441 320.393 93.2C320.735 95.144 321.023 97.4033 321.259 99.899ZM280.725 98.349C282.406 100.267 284.349 101.922 286.32 103.262C288.237 104.522 290.26 105.6 292.362 106.493C294.884 104.155 297.064 101.449 298.798 98.5066C295.357 98.8481 291.6 98.9269 287.528 98.7693C285.453 98.6905 283.168 98.5854 280.725 98.349ZM294.595 107.386C300.795 109.645 307.442 110.591 313.484 111.169C315.664 111.379 317.818 111.563 319.893 111.668C319.709 108.122 319.5 104.733 319.211 101.659C315.034 100.556 311.303 98.9532 308.046 96.8253C305.997 97.4295 303.816 97.8761 301.452 98.1914C299.692 101.58 297.353 104.68 294.595 107.386ZM322.126 111.773C337.573 112.404 349.736 110.171 359.877 104.943C367.495 101.002 373.616 95.144 377.557 88.4714C376.48 87.9197 375.403 87.3154 374.379 86.685C374.247 86.6061 374.116 86.5273 373.985 86.4485C371.647 89.6272 368.731 92.517 365.315 94.8813C357.014 100.635 345.928 103.603 333.397 103.445C329.115 103.393 325.147 102.973 321.47 102.211C321.732 105.179 321.942 108.411 322.126 111.773ZM251.538 40.922C246.993 43.7854 242.948 47.7522 239.743 52.5335C231.31 65.117 230.101 82.2452 236.748 95.144C243.657 108.542 259.104 117.053 273.553 115.372C279.805 114.637 285.689 111.983 290.523 108.095C288.658 107.228 286.846 106.256 285.112 105.1C282.38 103.262 279.752 100.845 277.598 98.0074C270.4 97.088 262.335 95.144 255.216 90.8619C244.498 84.3994 238.061 73.3659 238.797 62.7264C239.349 54.6088 244.182 46.6751 251.59 41.2897C251.564 41.1584 251.538 41.027 251.538 40.922ZM321.732 158.009C321.102 158.009 320.629 157.51 320.629 156.906C320.629 156.538 320.892 133.42 319.999 113.875C317.819 113.77 315.585 113.586 313.273 113.376C306.732 112.745 299.508 111.694 292.782 109.041C287.476 113.612 280.856 116.738 273.815 117.553C258.526 119.339 242.107 110.355 234.804 96.1685C227.685 82.3503 228.893 64.7492 237.93 51.2988C241.529 45.9133 246.205 41.4736 251.433 38.4C251.512 36.2458 251.985 33.9603 252.851 31.4383C257.423 18.1455 269.874 7.29585 285.348 3.14514C298.141 -0.322556 312.853 0.386749 329.088 5.24677C334.578 6.87553 339.255 8.74071 343.301 10.8686C348.056 9.73898 352.679 9.42372 356.436 9.47626C366.891 9.63388 376.795 12.655 384.676 17.7777C385.937 17.515 387.224 17.3049 388.538 17.1998C395.001 16.7269 402.015 18.2506 410.605 22.0598C418.46 25.5275 436.981 35.5365 439.056 53.2953C440.16 62.6213 436.192 72.7879 428.442 80.4851C416.043 92.8322 395.579 96.2737 379.554 89.3908C375.403 96.5101 368.967 102.736 360.902 106.887C350.446 112.299 337.968 114.584 322.232 113.98C323.099 133.183 322.835 155.487 322.835 156.932C322.809 157.536 322.336 158.009 321.732 158.009Z" fill="#212529"/>
<path d="M229.628 463.926H461.753L421.874 413.776H269.48L229.628 463.926ZM464.038 466.133H227.342C226.922 466.133 226.529 465.896 226.345 465.502C226.161 465.134 226.213 464.661 226.476 464.346L268.088 411.989C268.298 411.727 268.613 411.569 268.955 411.569H422.426C422.742 411.569 423.057 411.727 423.267 411.989L464.905 464.346C465.168 464.661 465.221 465.134 465.037 465.502C464.853 465.896 464.459 466.133 464.038 466.133Z" fill="#212529"/>
<path d="M423.266 253.186L395.288 228.702C395.288 228.702 413.809 216.959 421.98 211.627C430.15 206.267 433.486 199.463 427.628 195.076C419.011 188.614 405.167 201.171 405.167 201.171C405.167 201.171 417.723 183.885 406.506 179.498C395.288 175.137 389.772 190.111 389.772 190.111C389.772 190.111 394.29 171.407 385.253 169.252C382.758 168.675 379.132 168.885 377.425 169.909C375.927 167.571 372.039 165.601 368.44 166.336C359.351 168.202 360.402 190.82 357.144 195.943C353.913 201.092 344.324 214.464 339.595 224.499C334.867 234.561 345.244 246.514 357.88 262.118C363.423 268.975 371.094 280.691 377.924 291.672C386.961 306.174 406.218 310.298 420.351 300.683C436.639 289.65 438.083 266.164 423.266 253.186Z" fill="white"/>
<path d="M390.929 226.022C390.745 226.022 390.534 225.97 390.35 225.865C389.851 225.549 389.667 224.866 389.982 224.341L404.221 200.619C404.536 200.093 405.193 199.936 405.718 200.225C406.243 200.54 406.401 201.223 406.112 201.748L391.874 225.47C391.663 225.812 391.296 226.022 390.929 226.022Z" fill="#212529"/>
<path d="M383.416 221.268C383.258 221.268 383.127 221.241 382.969 221.189C382.418 220.952 382.155 220.296 382.417 219.744C385.044 213.676 388.67 190.19 388.696 189.953C388.775 189.349 389.352 188.955 389.957 189.034C390.561 189.113 390.955 189.691 390.876 190.295C390.718 191.267 387.172 214.28 384.44 220.611C384.256 221.031 383.836 221.268 383.416 221.268Z" fill="#212529"/>
<path d="M371.778 215.382C371.647 215.382 371.515 215.356 371.384 215.303C370.806 215.093 370.517 214.462 370.727 213.911C377.873 194.549 376.349 170.223 376.323 169.96C376.297 169.356 376.743 168.831 377.347 168.804C377.951 168.778 378.503 169.225 378.529 169.829C378.556 170.065 380.106 194.891 372.803 214.673C372.646 215.093 372.225 215.382 371.778 215.382Z" fill="#212529"/>
<path d="M430.831 378.232C430.49 378.232 430.175 378.074 429.939 377.785C398.992 335.122 377.371 287.967 377.161 287.494C376.898 286.942 377.161 286.286 377.713 286.049C378.265 285.786 378.921 286.023 379.158 286.575C379.394 287.047 400.909 333.993 431.724 376.498C432.092 376.997 431.987 377.68 431.488 378.022C431.278 378.179 431.068 378.232 430.831 378.232Z" fill="white"/>
<path d="M369.99 167.282C369.543 167.282 369.097 167.309 368.65 167.414C363.449 168.465 361.898 178.263 360.664 186.145C359.954 190.663 359.325 194.577 358.09 196.548C357.302 197.756 356.172 199.464 354.832 201.46C350.576 207.791 344.166 217.38 340.593 224.972C336.39 233.904 345.427 245.043 356.854 259.124L358.72 261.435C363.475 267.294 370.253 277.276 378.869 291.095C383.072 297.872 389.693 302.496 397.496 304.151C405.245 305.806 413.152 304.256 419.746 299.79C427.207 294.72 431.83 286.629 432.382 277.592C432.933 268.581 429.361 259.991 422.557 254.027L394.552 229.517C394.29 229.281 394.159 228.965 394.185 228.597C394.211 228.256 394.395 227.941 394.71 227.757C394.894 227.652 413.284 215.961 421.375 210.707C426.34 207.45 429.387 203.641 429.492 200.514C429.545 198.781 428.705 197.257 426.971 195.97C419.168 190.111 406.033 201.88 405.902 201.986C405.482 202.38 404.851 202.38 404.431 202.012C404.01 201.618 403.931 200.987 404.272 200.541C404.325 200.436 411.576 190.348 409.789 184.253C409.29 182.519 408.082 181.285 406.111 180.523C403.616 179.551 401.225 179.577 399.018 180.575C393.633 182.992 390.849 190.427 390.822 190.505C390.612 191.057 390.008 191.346 389.456 191.162C388.905 191.005 388.563 190.427 388.721 189.875C388.747 189.744 391.48 178.106 388.17 172.72C387.381 171.433 386.356 170.645 384.99 170.33C382.705 169.778 379.368 170.041 378.002 170.855C377.477 171.144 376.82 170.987 376.505 170.487C375.402 168.78 372.695 167.282 369.99 167.282ZM403.563 306.988C401.383 306.988 399.203 306.778 397.022 306.305C388.642 304.519 381.523 299.554 377.005 292.277C368.414 278.511 361.689 268.607 357.012 262.802L355.147 260.516C343.22 245.831 333.815 234.219 338.597 224.053C342.248 216.303 348.711 206.635 353.02 200.225C354.333 198.255 355.463 196.574 356.224 195.365C357.223 193.789 357.827 189.901 358.484 185.803C359.824 177.239 361.505 166.626 368.204 165.26C371.961 164.498 375.796 166.232 377.766 168.517C379.973 167.676 383.309 167.65 385.489 168.176C387.433 168.648 388.957 169.778 390.061 171.564C392.11 174.901 392.215 179.997 391.847 184.043C393.371 181.941 395.446 179.761 398.126 178.552C400.884 177.318 403.852 177.291 406.9 178.474C409.527 179.498 411.208 181.232 411.891 183.623C413.099 187.721 411.103 192.975 409.107 196.784C414.151 193.448 422.242 189.665 428.284 194.21C430.596 195.917 431.778 198.124 431.673 200.593C431.568 204.481 428.232 208.842 422.584 212.546C415.701 217.012 401.409 226.102 397.127 228.834L424.002 252.372C431.331 258.782 435.167 268.029 434.589 277.723C433.985 287.443 429.02 296.139 420.981 301.603C415.727 305.149 409.737 306.988 403.563 306.988Z" fill="#212529"/>
<path d="M201.359 351.279C201.175 351.279 200.965 351.226 200.782 351.121C200.466 350.911 168.469 330.788 144.405 343.083C143.853 343.372 143.197 343.162 142.908 342.61C142.645 342.058 142.855 341.401 143.406 341.139C168.6 328.266 200.624 348.389 201.964 349.256C202.489 349.598 202.621 350.281 202.305 350.78C202.095 351.121 201.727 351.279 201.359 351.279Z" fill="white"/>
<path d="M271.374 330.604L250.121 352.198L317.347 418.399L338.626 396.805L271.374 330.604Z" fill="#f8971e"/>
<path d="M251.671 352.199L317.347 416.824L337.05 396.806L271.4 332.181L251.671 352.199ZM317.347 419.504C317.058 419.504 316.796 419.373 316.585 419.189L249.359 352.987C248.912 352.567 248.913 351.884 249.333 351.437L270.586 329.843C270.796 329.633 271.085 329.502 271.374 329.502C271.663 329.502 271.952 329.633 272.162 329.817L339.387 396.018C339.808 396.439 339.834 397.122 339.387 397.568L318.135 419.162C317.925 419.373 317.662 419.504 317.373 419.504C317.347 419.504 317.347 419.504 317.347 419.504Z" fill="#212529"/>
<path d="M317.346 418.4L346.585 425.913L338.625 396.806L317.346 418.4Z" fill="white"/>
<path d="M346.584 425.913L342.485 410.939L331.557 422.051L346.584 425.913Z" fill="#212529"/>
<path d="M322.994 413.776C322.706 413.776 322.417 413.671 322.206 413.461L260.838 353.039C260.418 352.618 260.418 351.935 260.838 351.489C261.259 351.068 261.969 351.042 262.389 351.489L323.756 411.884C324.203 412.305 324.203 413.014 323.783 413.434C323.546 413.671 323.257 413.776 322.994 413.776Z" fill="#212529"/>
<path d="M332.977 403.611C332.688 403.611 332.426 403.506 332.216 403.296L270.848 342.9C270.401 342.48 270.401 341.77 270.821 341.35C271.268 340.903 271.951 340.903 272.397 341.324L333.739 401.719C334.185 402.166 334.186 402.849 333.765 403.296C333.555 403.506 333.266 403.611 332.977 403.611Z" fill="#212529"/>
<path d="M255.98 357.979L248.913 351.017C242.95 345.133 242.871 335.544 248.729 329.581C254.614 323.617 264.202 323.538 270.166 329.423L277.259 336.385L255.98 357.979Z" fill="white"/>
<path d="M259.523 326.164C255.897 326.164 252.273 327.557 249.514 330.342C246.887 333.021 245.442 336.568 245.468 340.324C245.52 344.081 246.992 347.601 249.671 350.228L255.976 356.428L275.679 336.41L269.401 330.21C266.642 327.504 263.095 326.164 259.523 326.164ZM255.976 359.081C255.687 359.081 255.425 358.976 255.215 358.766L248.122 351.804C245.022 348.757 243.315 344.685 243.288 340.351C243.236 335.99 244.891 331.891 247.938 328.818C254.243 322.434 264.541 322.329 270.925 328.634L278.018 335.596C278.464 336.042 278.464 336.725 278.043 337.172L256.764 358.766C256.554 358.976 256.292 359.081 256.003 359.081H255.976Z" fill="#212529"/>
<path d="M271.374 330.604L250.121 352.198L259.552 361.498L280.831 339.904L271.374 330.604Z" fill="white"/>
<path d="M251.671 352.199L259.552 359.949L279.255 339.905L271.4 332.181L251.671 352.199ZM259.552 362.602C259.263 362.602 259.001 362.497 258.791 362.287L249.359 352.987C248.912 352.567 248.913 351.884 249.333 351.438L270.586 329.843C270.796 329.633 271.085 329.502 271.374 329.502C271.663 329.502 271.952 329.633 272.162 329.817L281.592 339.117C282.039 339.537 282.039 340.246 281.592 340.667L260.34 362.287C260.13 362.497 259.868 362.602 259.579 362.602H259.552Z" fill="#212529"/>
<path d="M319.476 417.797L345.036 424.364L338.049 398.935L319.476 417.797ZM346.587 427.018C346.508 427.018 346.403 427.018 346.324 426.991L317.085 419.452C316.691 419.373 316.402 419.058 316.297 418.69C316.192 418.296 316.297 417.902 316.56 417.613L337.839 396.019C338.101 395.73 338.522 395.624 338.889 395.73C339.283 395.835 339.572 396.124 339.677 396.491L347.663 425.625C347.768 425.993 347.664 426.413 347.375 426.676C347.165 426.912 346.876 427.018 346.587 427.018Z" fill="#212529"/>
<path d="M278.203 336.069C299.955 339.406 310.148 341.481 321.707 354.826C332.215 366.937 332.373 374.897 325.175 377.393C317.346 380.125 307.179 365.492 303.738 362.445C301.662 360.658 296.25 358.741 293.019 357.821C294.044 359.975 296.566 363.548 297.144 366.622C298.668 374.687 299.981 385.116 285.953 387.927C285.953 387.927 279.333 400.511 265.883 397.595C265.883 397.595 249.489 410.388 237.011 398.514C237.011 398.514 229.97 404.11 218.228 398.514C218.228 398.514 212.159 403.637 209.873 404.898C196.239 412.358 179.138 402.612 173.989 387.98C168.472 372.375 177.692 355.431 193.796 351.595C211.187 347.418 256.504 332.733 278.203 336.069Z" fill="white"/>
<path d="M270.951 336.672C253.061 336.672 226.134 344.028 207.535 349.098C202.176 350.543 197.552 351.804 194.032 352.645C186.677 354.431 180.371 359.239 176.746 365.885C173.121 372.558 172.49 380.465 175.012 387.611C177.744 395.334 184.102 401.902 191.641 404.791C197.736 407.129 204.041 406.814 209.321 403.925C211.528 402.716 217.465 397.725 217.518 397.672C217.833 397.409 218.306 397.331 218.7 397.515C229.628 402.716 236.039 397.856 236.328 397.646C236.748 397.331 237.352 397.357 237.746 397.725C249.436 408.811 265.041 396.858 265.198 396.726C265.461 396.516 265.776 396.437 266.118 396.516C278.57 399.222 284.717 387.9 284.953 387.4C285.111 387.111 285.401 386.901 285.716 386.849C298.273 384.327 297.721 375.579 296.066 366.831C295.698 364.86 294.358 362.522 293.308 360.631C292.808 359.764 292.336 358.95 292.021 358.267C291.837 357.899 291.915 357.426 292.204 357.084C292.467 356.769 292.914 356.638 293.334 356.743C294.727 357.163 301.793 359.291 304.446 361.629C305.234 362.312 306.285 363.494 307.625 364.992C312.012 369.957 319.367 378.258 324.805 376.367C327.012 375.605 328.352 374.318 328.825 372.505C329.876 368.67 327.038 362.654 320.865 355.534C309.569 342.478 299.586 340.455 278.044 337.145C275.916 336.83 273.526 336.672 270.951 336.672ZM199.785 408.548C196.816 408.548 193.822 407.996 190.853 406.841C182.736 403.741 175.879 396.648 172.937 388.346C170.205 380.596 170.888 372.032 174.828 364.834C178.742 357.636 185.546 352.435 193.532 350.517C197.026 349.676 201.624 348.415 206.957 346.97C228.394 341.112 260.785 332.285 278.386 334.965C300.453 338.38 310.725 340.429 322.547 354.09C329.298 361.892 332.214 368.459 330.953 373.083C330.296 375.579 328.431 377.444 325.541 378.442C318.685 380.807 311.04 372.164 305.97 366.463C304.735 365.071 303.684 363.888 303.001 363.284C301.687 362.128 298.483 360.762 295.278 359.685C296.434 361.682 297.8 364.151 298.22 366.41C299.507 373.136 301.846 385.588 286.635 388.898C285.243 391.21 278.412 401.14 266.118 398.776C263.464 400.667 248.674 410.256 236.905 399.905C234.699 401.245 228.157 404.187 218.385 399.8C216.835 401.114 212.368 404.765 210.398 405.842C207.114 407.655 203.489 408.548 199.785 408.548Z" fill="#212529"/>
<path d="M293.018 358.924C292.571 358.924 292.151 358.635 291.994 358.188C291.968 358.109 288.999 349.992 285.216 345.762C284.796 345.316 284.848 344.633 285.295 344.212C285.741 343.818 286.45 343.844 286.844 344.291C290.916 348.836 293.937 357.085 294.069 357.426C294.279 358.004 293.964 358.635 293.412 358.845C293.281 358.897 293.149 358.924 293.018 358.924Z" fill="#212529"/>
<path d="M285.953 389.03C285.769 389.03 285.585 388.977 285.427 388.899C284.902 388.61 284.692 387.953 284.981 387.401C288.711 380.282 280.672 362.891 274.052 353.355C273.711 352.856 273.816 352.173 274.315 351.831C274.814 351.49 275.498 351.595 275.865 352.094C282.512 361.656 291.391 379.967 286.925 388.426C286.714 388.82 286.347 389.03 285.953 389.03Z" fill="#212529"/>
<path d="M265.881 398.697C265.645 398.697 265.434 398.618 265.224 398.486C264.725 398.119 264.619 397.436 264.987 396.937C269.296 390.947 261.94 368.643 255.083 358.608C254.742 358.109 254.874 357.426 255.373 357.084C255.872 356.743 256.554 356.874 256.896 357.373C263.437 366.936 272.107 390.789 266.774 398.224C266.537 398.539 266.223 398.697 265.881 398.697Z" fill="#212529"/>
<path d="M243.97 393.076C243.471 393.076 242.999 392.735 242.894 392.21C242.867 392.078 240.056 378.523 236.01 373.899C235.616 373.452 235.669 372.769 236.116 372.349C236.562 371.955 237.271 372.008 237.665 372.454C242.105 377.498 244.942 391.185 245.073 391.763C245.178 392.367 244.811 392.945 244.207 393.076C244.128 393.076 244.049 393.076 243.97 393.076Z" fill="#212529"/>
<path d="M237.009 399.616C236.746 399.616 236.51 399.538 236.3 399.38C234.618 398.014 232.753 395.545 232.49 392.707C232.333 390.816 232.937 389.029 234.25 387.532C237.376 383.959 241.422 384.669 243.13 385.536C243.682 385.825 243.892 386.481 243.603 387.033C243.34 387.558 242.657 387.769 242.131 387.506C242 387.427 238.664 385.824 235.906 389.003C234.986 390.028 234.592 391.21 234.697 392.523C234.881 394.678 236.431 396.648 237.692 397.672C238.165 398.04 238.243 398.75 237.849 399.222C237.639 399.485 237.324 399.616 237.009 399.616Z" fill="#212529"/>
<path d="M382.969 421.578C382.706 421.578 382.443 421.578 382.206 421.605C380.473 421.683 377.294 422.209 375.219 424.521C373.538 426.412 373.196 429.302 374.431 431.114C375.219 432.27 376.558 433.032 377.872 433.689C378.581 434.03 379.264 434.346 379.973 434.635C385.175 433.899 390.325 432.717 395.316 431.114C395.631 431.009 396.629 430.694 396.761 430.221C396.866 429.88 396.471 429.249 396.34 429.039C393.555 424.494 388.275 421.578 382.969 421.578ZM358.8 422.577C355.096 422.577 351.444 425.151 350.367 428.75C349.999 430.037 349.999 431.272 350.446 432.165C351.181 433.794 353.204 434.714 356.724 435.108C359.85 435.423 362.977 435.607 366.129 435.607C366.76 434.425 367.128 433.19 367.259 431.903C367.6 427.699 364.396 423.496 360.245 422.708C359.772 422.603 359.299 422.577 358.8 422.577ZM390.429 437.63C395.421 438.391 400.517 438.313 405.456 437.341C400.569 436.158 395.342 436.29 390.429 437.63ZM307.204 428.776C305.943 428.776 304.682 428.934 303.527 429.381C301.583 430.09 299.612 432.06 299.796 434.267C300.112 437.892 305.393 439.258 307.652 439.679C309.57 440.046 311.487 440.335 313.405 440.572C313.983 440.283 314.534 439.968 315.06 439.652C317.634 438.155 318.922 436.71 319.132 435.134C319.631 431.325 313.983 429.512 310.936 429.092C309.753 428.934 308.492 428.776 307.204 428.776ZM323.283 441.334C327.88 441.439 332.477 441.229 337.048 440.677C341.645 440.151 344.22 438.864 345.244 436.684C346.321 434.319 345.113 431.587 343.774 429.932C341.882 427.673 338.939 426.281 335.655 426.123C332.345 425.965 329.272 427.069 327.197 429.144C323.808 432.559 323.151 437.446 323.283 441.334ZM390.272 454.626C386.542 454.626 382.811 454.39 379.133 453.891C374.352 453.234 373.038 451.159 372.776 449.504C372.408 447.428 373.8 445.642 374.851 444.486C377.189 441.912 380 439.784 383.1 438.155C381.944 437.787 380.815 437.367 379.685 436.92C375.613 437.472 371.488 437.761 367.364 437.813C365.472 440.624 362.294 443.225 357.749 445.616C351.26 449.083 344.351 451.763 337.232 453.602C331.111 455.178 326.855 454.6 324.202 451.842C322.416 449.95 321.785 447.297 321.469 445.195C321.364 444.67 321.286 444.092 321.233 443.462C318.764 443.356 316.295 443.146 313.825 442.857C304.394 447.691 293.229 449.425 282.8 447.612C279.096 446.982 276.889 445.484 276.259 443.225C275.576 440.729 277.099 438.444 278.307 436.92C284.165 429.617 292.808 424.521 302.029 422.971C302.607 422.866 303.185 423.26 303.291 423.864C303.396 424.468 303.002 425.02 302.398 425.125C293.702 426.622 285.558 431.403 280.041 438.286C278.596 440.099 278.071 441.491 278.386 442.621C278.859 444.355 281.249 445.117 283.167 445.458C292.046 446.982 301.504 445.852 309.831 442.306C308.965 442.148 308.125 442.017 307.258 441.859C301.347 440.756 297.931 438.129 297.616 434.477C297.327 431.141 299.98 428.33 302.738 427.305C305.576 426.254 308.597 426.543 311.251 426.911C316.715 427.673 321.943 430.589 321.312 435.423C320.997 437.997 318.974 439.784 317.135 440.992C318.448 441.097 319.762 441.176 321.075 441.255C320.944 436.946 321.759 431.509 325.647 427.594C328.169 425.072 331.847 423.732 335.761 423.916C339.649 424.1 343.195 425.782 345.454 428.54C347.793 431.351 348.476 434.897 347.241 437.603C345.455 441.491 340.726 442.463 337.311 442.884C332.713 443.409 328.064 443.619 323.466 443.54C323.519 444.013 323.571 444.46 323.623 444.854C323.939 446.745 324.438 448.873 325.804 450.318C327.827 452.446 331.4 452.84 336.681 451.474C343.642 449.661 350.367 447.034 356.724 443.672C360.244 441.807 362.872 439.863 364.632 437.787C361.9 437.735 359.194 437.577 356.488 437.288C353.73 436.999 349.894 436.237 348.423 433.085C347.609 431.325 347.871 429.407 348.265 428.12C349.763 423.023 355.437 419.555 360.639 420.528C365.867 421.526 369.886 426.806 369.44 432.086C369.334 433.295 369.045 434.451 368.572 435.58C371.016 435.528 373.485 435.397 375.901 435.134C374.667 434.451 373.458 433.61 372.618 432.375C370.805 429.722 371.2 425.703 373.59 423.049C375.508 420.895 378.528 419.582 382.075 419.398C388.432 419.056 394.896 422.472 398.206 427.883C398.705 428.645 399.203 429.696 398.888 430.826C398.441 432.402 396.708 432.98 395.973 433.216C392.137 434.451 388.17 435.449 384.177 436.185C384.833 436.395 385.491 436.579 386.174 436.736C393.713 433.715 402.435 433.453 409.922 436.474C410.368 436.658 410.631 437.078 410.605 437.551C410.605 438.024 410.29 438.418 409.817 438.549C402.225 440.756 394.028 440.913 386.305 439.048C382.601 440.651 379.186 442.989 376.48 445.957C375.272 447.271 374.798 448.269 374.93 449.162C375.219 450.87 377.872 451.5 379.448 451.71C390.271 453.182 401.568 452.393 412.102 449.477C412.706 449.32 413.31 449.661 413.468 450.239C413.626 450.817 413.285 451.421 412.707 451.605C405.456 453.602 397.838 454.626 390.272 454.626Z" fill="#f85455"/>
<path d="M141.546 200.46C141.099 200.46 140.704 200.198 140.521 199.751L126.466 163.157C126.256 162.605 126.519 161.948 127.097 161.738C127.675 161.528 128.305 161.79 128.515 162.368L142.596 198.963C142.807 199.541 142.518 200.172 141.94 200.382C141.808 200.434 141.677 200.46 141.546 200.46Z" fill="#212529"/>
<path d="M89.6332 258.203C89.3179 258.203 89.0025 258.071 88.7661 257.782C88.3983 257.31 88.4779 256.627 88.9508 256.259L118.951 232.537C119.267 232.3 119.66 232.248 120.028 232.379L153.76 245.094C154.338 245.33 154.627 245.961 154.416 246.512C154.206 247.09 153.549 247.379 152.997 247.169L119.818 234.665L90.3166 257.966C90.1065 258.124 89.8696 258.203 89.6332 258.203Z" fill="#212529"/>
<path d="M89.6334 258.203C89.1605 258.203 88.714 257.888 88.5826 257.388L80.4388 226.626C80.2812 226.022 80.6233 225.417 81.2012 225.26C81.8055 225.128 82.4095 225.47 82.5671 226.048L90.7109 256.837C90.8685 257.415 90.5007 258.019 89.9228 258.177C89.8177 258.203 89.7385 258.203 89.6334 258.203Z" fill="#212529"/>
<path d="M538.832 216.565C538.779 216.565 538.753 216.565 538.701 216.565L499.715 212.283C499.399 212.257 499.137 212.099 498.953 211.863C498.769 211.6 498.69 211.285 498.743 210.996L503.945 183.07C504.05 182.466 504.627 182.072 505.231 182.177C505.809 182.309 506.204 182.887 506.099 183.465L501.134 210.234L538.384 214.306L558.403 191.818C558.797 191.346 559.506 191.319 559.953 191.713C560.399 192.134 560.452 192.817 560.058 193.263L539.646 216.197C539.435 216.434 539.147 216.565 538.832 216.565Z" fill="#212529"/>
<path d="M75.9461 373.32C75.7884 373.32 75.6039 373.293 75.4463 373.188C74.8946 372.926 74.7105 372.243 74.9732 371.717L88.6605 345.552C88.9232 345.026 89.5533 344.816 90.0787 345.053L120.08 358.135C120.632 358.372 120.894 359.028 120.631 359.58C120.395 360.132 119.738 360.395 119.186 360.158L90.1321 347.47L76.9435 372.742C76.7333 373.109 76.3664 373.32 75.9461 373.32Z" fill="#212529"/>
<path d="M97.802 350.727C97.1978 350.727 96.6989 350.254 96.6989 349.65L95.8317 320.437C95.8317 320.122 95.9366 319.833 96.1468 319.623C96.3569 319.413 96.6459 319.307 96.9349 319.307H113.696L106.655 293.51C106.524 293.011 106.76 292.485 107.233 292.249L143.407 273.676C143.748 273.492 144.169 273.518 144.484 273.728L173.224 292.302C173.749 292.617 173.881 293.3 173.565 293.825C173.224 294.324 172.541 294.482 172.041 294.14L143.828 275.935L109.019 293.799L116.191 320.096C116.296 320.437 116.218 320.805 116.008 321.068C115.797 321.33 115.482 321.488 115.14 321.488H98.0904L98.9052 349.571C98.9052 350.201 98.4319 350.701 97.8277 350.727C97.8014 350.727 97.802 350.727 97.802 350.727Z" fill="#212529"/>
<path d="M565.968 403.611C565.81 403.611 565.679 403.585 565.548 403.532C564.97 403.296 564.707 402.639 564.943 402.087L585.355 353.618L544.978 358.899C544.558 358.951 544.137 358.767 543.9 358.426C543.664 358.084 543.665 357.638 543.875 357.27L558.271 331.866C558.56 331.341 559.243 331.157 559.768 331.472C560.294 331.761 560.477 332.444 560.188 332.97L546.869 356.429L586.958 351.175C587.352 351.123 587.746 351.28 587.982 351.595C588.219 351.911 588.271 352.331 588.114 352.699L566.966 402.954C566.808 403.374 566.388 403.611 565.968 403.611Z" fill="#212529"/>
<path d="M494.014 317.548C493.751 317.548 493.489 317.469 493.253 317.259C492.832 316.839 492.806 316.156 493.226 315.709L511.379 296.426C511.721 296.059 512.246 295.98 512.693 296.216L541.774 311.164C542.299 311.427 542.51 312.11 542.247 312.635C541.958 313.187 541.3 313.397 540.749 313.108L512.403 298.554L494.829 317.206C494.619 317.443 494.303 317.548 494.014 317.548Z" fill="#212529"/>
<path d="M479.961 425.914L454.084 418.426L440.161 447.797L450.144 461.011L451.274 481.817L499.821 487.99L517.632 465.03L505.259 453.208L529.533 441.308L512.168 414.959L479.961 425.914Z" fill="white"/>
<path d="M452.322 480.844L499.346 486.834L516.159 465.134L504.521 454.022C504.258 453.759 504.126 453.391 504.179 453.05C504.232 452.682 504.468 452.393 504.783 452.235L527.928 440.887L511.718 416.298L480.325 426.963C480.089 427.016 479.879 427.042 479.643 426.963L454.686 419.739L441.445 447.664L451.034 460.327C451.165 460.511 451.244 460.721 451.244 460.931L452.322 480.844ZM499.819 489.093C499.792 489.093 499.74 489.093 499.687 489.093L451.14 482.893C450.614 482.84 450.194 482.394 450.168 481.868L449.064 461.404L439.291 448.479C439.055 448.137 439.003 447.717 439.187 447.323L453.083 417.953C453.32 417.48 453.871 417.217 454.397 417.375L479.931 424.757L511.824 413.933C512.297 413.776 512.823 413.933 513.085 414.354L530.449 440.703C530.607 440.965 530.66 441.307 530.581 441.596C530.502 441.911 530.292 442.174 530.003 442.305L507.174 453.496L518.392 464.215C518.812 464.609 518.865 465.266 518.523 465.712L500.712 488.672C500.501 488.935 500.16 489.093 499.819 489.093Z" fill="#212529"/>
<path d="M505.256 454.311C504.731 454.311 504.258 453.917 504.179 453.391L502.104 440.204L480.22 445.747C479.905 445.852 479.563 445.773 479.274 445.563C479.012 445.353 478.855 445.037 478.855 444.696V425.913C478.855 425.308 479.353 424.809 479.958 424.809C480.562 424.809 481.061 425.308 481.061 425.913V443.277L502.734 437.787C503.049 437.708 503.365 437.76 503.628 437.918C503.89 438.102 504.047 438.365 504.1 438.68L506.359 453.05C506.438 453.654 506.044 454.206 505.44 454.311C505.387 454.311 505.335 454.311 505.256 454.311Z" fill="#212529"/>
<path d="M492.623 477.85C492.361 477.85 492.124 477.772 491.914 477.588L463.91 454.548L450.696 461.957C450.171 462.272 449.487 462.062 449.198 461.536C448.883 461.011 449.094 460.328 449.619 460.039L463.49 452.263C463.884 452.027 464.383 452.079 464.724 452.368L493.307 475.906C493.78 476.274 493.858 476.983 493.464 477.456C493.254 477.719 492.939 477.85 492.623 477.85Z" fill="#212529"/>
<path d="M569.935 368.932H541.064L533.761 395.912L560.478 406.998L533.761 417.795L543.323 435.028L583.753 441.123L612.493 432.112L633.745 406.998C633.745 406.998 607.449 400.614 606.871 398.933C606.32 397.252 609.682 355.928 609.682 355.928L579.628 361.97L569.935 368.932Z" fill="white"/>
<path d="M544.033 434.005L583.676 439.995L611.864 431.168L631.75 407.656C606.557 401.482 606.032 399.88 605.822 399.275C605.296 397.62 607.397 370.457 608.474 357.295L580.077 363.022L570.593 369.826C570.409 369.958 570.172 370.01 569.936 370.01H541.931L535.075 395.256L560.899 405.974C561.293 406.158 561.582 406.552 561.556 406.999C561.556 407.446 561.293 407.866 560.873 408.024L535.338 418.348L544.033 434.005ZM583.755 442.228C583.702 442.228 583.649 442.228 583.597 442.201L543.167 436.107C542.825 436.054 542.536 435.844 542.352 435.555L532.816 418.348C532.658 418.059 532.632 417.744 532.737 417.428C532.842 417.139 533.052 416.903 533.341 416.772L557.562 406.999L533.341 396.937C532.842 396.701 532.553 396.149 532.711 395.624L540.014 368.644C540.146 368.145 540.592 367.83 541.065 367.83H569.594L578.999 361.078C579.104 361 579.262 360.921 579.42 360.894L609.473 354.852C609.814 354.773 610.156 354.879 610.419 355.089C610.682 355.325 610.813 355.667 610.786 356.008C609.525 371.613 607.739 395.256 607.923 398.409C609.894 399.643 622.503 403.137 634.009 405.922C634.377 406.027 634.692 406.29 634.797 406.657C634.929 407.025 634.851 407.419 634.588 407.708L613.334 432.823C613.203 432.98 613.046 433.112 612.836 433.164L584.095 442.175C583.99 442.201 583.86 442.228 583.755 442.228Z" fill="#212529"/>
<path d="M607.45 418.9C607.003 418.9 606.608 418.637 606.425 418.217C606.188 417.665 606.451 417.008 607.029 416.772L633.326 405.975C633.904 405.765 634.534 406.027 634.771 406.579C635.007 407.157 634.744 407.787 634.166 408.024L607.869 418.821C607.712 418.873 607.581 418.9 607.45 418.9Z" fill="#212529"/>
<path d="M575.481 430.063C575.113 430.063 574.772 429.906 574.562 429.59L559.561 407.628C559.219 407.129 559.351 406.446 559.85 406.105C560.349 405.763 561.031 405.868 561.373 406.394L574.771 425.991L582.679 368.354C582.757 367.75 583.283 367.33 583.913 367.435C584.517 367.514 584.938 368.065 584.859 368.669L576.557 429.118C576.505 429.564 576.164 429.932 575.717 430.037C575.638 430.063 575.56 430.063 575.481 430.063Z" fill="#212529"/>
<path d="M234.775 122.175C234.433 122.175 234.092 122.017 233.882 121.728L220.668 103.759C220.326 103.26 220.431 102.577 220.904 102.209C221.403 101.841 222.087 101.946 222.455 102.446L235.669 120.441C236.037 120.914 235.905 121.623 235.432 121.964C235.222 122.122 235.011 122.175 234.775 122.175Z" fill="#212529"/>
<path d="M589.77 295.638C589.665 295.638 589.586 295.638 589.507 295.612L561.74 288.913C561.162 288.781 560.794 288.177 560.925 287.599C561.083 286.995 561.687 286.653 562.265 286.785L590.033 293.484C590.611 293.615 590.978 294.219 590.821 294.797C590.716 295.296 590.269 295.638 589.77 295.638Z" fill="#212529"/>
<path d="M23.7718 418.794C23.7718 415.064 26.7933 412.043 30.4975 412.043C34.2278 412.043 37.2487 415.064 37.2487 418.794C37.2487 422.525 34.2278 425.546 30.4975 425.546C26.7933 425.546 23.7718 422.525 23.7718 418.794ZM14.4192 418.794C14.4192 427.674 21.6181 434.872 30.4975 434.872C35.6202 434.872 40.1643 432.481 43.1329 428.777L46.3377 453.918C46.7843 457.385 49.7007 459.96 53.1947 459.96H87.2938C90.7615 459.96 93.7032 457.385 94.1498 453.918L101.348 397.542C101.874 393.417 98.6685 389.766 94.4915 389.766H45.997C41.82 389.766 38.6146 393.417 39.14 397.542L40.2175 405.974C37.5116 403.925 34.149 402.717 30.4975 402.717C21.6181 402.717 14.4192 409.915 14.4192 418.794Z" fill="#5a57ff"/>
<path d="M30.5 413.145C27.4001 413.145 24.8519 415.694 24.8519 418.793C24.8519 421.92 27.4001 424.442 30.5 424.442C33.6262 424.442 36.1482 421.92 36.1482 418.793C36.1482 415.694 33.6262 413.145 30.5 413.145ZM30.5 426.648C26.1917 426.648 22.6713 423.128 22.6713 418.793C22.6713 414.485 26.1917 410.965 30.5 410.965C34.8347 410.965 38.3545 414.485 38.3545 418.793C38.3545 423.128 34.8347 426.648 30.5 426.648ZM43.1355 427.673C43.2143 427.673 43.3198 427.673 43.4249 427.699C43.8452 427.83 44.1604 428.198 44.213 428.619L47.4178 453.786C47.7855 456.675 50.2812 458.856 53.1972 458.856H87.2964C90.2124 458.856 92.6814 456.675 93.0492 453.786L100.274 397.409C100.484 395.754 99.9587 394.073 98.8554 392.838C97.752 391.577 96.1754 390.868 94.4941 390.868H45.9996C44.3183 390.868 42.7416 391.577 41.6383 392.838C40.5349 394.073 40.0099 395.754 40.2201 397.409L41.2966 405.842C41.3491 406.289 41.1389 406.709 40.7712 406.919C40.3771 407.156 39.9044 407.129 39.5366 406.867C36.9359 404.87 33.8101 403.819 30.5 403.819C22.2511 403.819 15.5259 410.545 15.5259 418.793C15.5259 427.069 22.2511 433.768 30.5 433.768C35.1236 433.768 39.4049 431.692 42.2684 428.093C42.4785 427.83 42.794 427.673 43.1355 427.673ZM87.2964 461.062H53.1972C49.1779 461.062 45.7625 458.041 45.2371 454.075L42.3217 431.272C39.1693 434.293 34.966 435.974 30.5 435.974C21.0427 435.974 13.3186 428.277 13.3186 418.793C13.3186 409.336 21.0427 401.613 30.5 401.613C33.4686 401.613 36.2793 402.348 38.8276 403.767L38.0394 397.672C37.7505 395.413 38.4594 393.101 39.983 391.367C41.5067 389.66 43.6878 388.661 45.9996 388.661H94.4941C96.8059 388.661 98.9869 389.633 100.511 391.367C102.034 393.101 102.743 395.413 102.454 397.672L95.2565 454.075C94.7311 458.041 91.3158 461.062 87.2964 461.062Z" fill="#212529"/>
<path d="M31.8675 295.613C48.8382 295.613 62.6039 309.378 62.6039 326.375C62.6039 331.104 61.5262 335.57 59.6085 339.589C66.176 342.689 70.6954 349.388 70.6954 357.111C70.6954 367.83 61.9993 376.525 51.2809 376.525C40.5364 376.525 31.8675 367.83 31.8675 357.111C14.8706 357.111 1.10452 343.346 1.10452 326.375C1.10452 309.378 14.8706 295.613 31.8675 295.613Z" fill="white"/>
<path d="M4.72949 376.526C4.72949 381.885 9.06369 386.246 14.4229 386.246C19.782 386.246 24.1429 381.885 24.1429 376.526C24.1429 371.167 19.782 366.832 14.4229 366.832C9.06369 366.832 4.72949 371.167 4.72949 376.526Z" fill="white"/>
<path d="M31.8662 296.715C15.4997 296.715 2.2063 310.008 2.2063 326.374C2.2063 342.714 15.4997 356.007 31.8662 356.007C32.4704 356.007 32.9426 356.506 32.9426 357.111C32.9426 367.198 41.1655 375.421 51.2796 375.421C61.3674 375.421 69.5898 367.198 69.5898 357.111C69.5898 350.096 65.4925 343.608 59.135 340.56C58.6096 340.298 58.3726 339.641 58.6353 339.115C60.5268 335.096 61.4994 330.814 61.4994 326.374C61.4994 310.008 48.2064 296.715 31.8662 296.715ZM51.2796 377.628C40.3248 377.628 31.3404 369.011 30.7887 358.188C13.7129 357.636 0 343.555 0 326.374C0 308.799 14.2913 294.508 31.8662 294.508C49.4148 294.508 63.7057 308.799 63.7057 326.374C63.7057 330.788 62.8121 335.07 61.052 339.063C67.6196 342.636 71.7972 349.597 71.7972 357.111C71.7972 368.433 62.5758 377.628 51.2796 377.628Z" fill="#212529"/>
<path d="M14.4215 367.908C9.69281 367.908 5.83127 371.77 5.83127 376.525C5.83127 381.28 9.69281 385.142 14.4215 385.142C19.1764 385.142 23.0384 381.28 23.0384 376.525C23.0384 371.77 19.1764 367.908 14.4215 367.908ZM14.4215 387.348C8.4581 387.348 3.62497 382.488 3.62497 376.525C3.62497 370.562 8.4581 365.728 14.4215 365.728C20.3849 365.728 25.2457 370.562 25.2457 376.525C25.2457 382.488 20.3849 387.348 14.4215 387.348Z" fill="#212529"/>
<path d="M185.6 441.412L171.283 436.237L159.146 455.388L169.286 478.611L205.829 489.855L245.339 478.611L260.576 448.61L226.24 442.988L205.829 430.825L185.6 441.412Z" fill="white"/>
<path d="M170.1 477.719L205.854 488.7L244.576 477.693L258.894 449.452L226.056 444.067C225.924 444.04 225.793 443.988 225.662 443.935L205.801 432.087L186.098 442.412C185.835 442.543 185.494 442.569 185.205 442.464L171.728 437.578L160.406 455.494L170.1 477.719ZM205.827 490.959C205.722 490.959 205.617 490.933 205.512 490.907L168.97 479.663C168.655 479.558 168.392 479.348 168.261 479.059L158.147 455.836C157.989 455.52 158.042 455.126 158.226 454.811L170.336 435.634C170.625 435.213 171.15 435.003 171.649 435.187L185.52 440.231L205.329 429.854C205.67 429.67 206.064 429.697 206.405 429.881L226.608 441.912L260.759 447.508C261.101 447.561 261.39 447.797 261.547 448.112C261.705 448.427 261.705 448.795 261.547 449.111L246.336 479.111C246.205 479.374 245.943 479.584 245.654 479.663L206.142 490.907C206.037 490.933 205.932 490.959 205.827 490.959Z" fill="#212529"/>
<path d="M205.829 469.207C205.487 469.207 205.146 469.05 204.936 468.787L184.708 442.096C184.34 441.597 184.444 440.914 184.917 440.546C185.416 440.179 186.1 440.284 186.468 440.756L206.223 466.79L260.209 447.56C260.787 447.35 261.391 447.666 261.601 448.243C261.811 448.795 261.522 449.426 260.944 449.636L206.196 469.155C206.065 469.181 205.96 469.207 205.829 469.207Z" fill="#212529"/>
<path d="M185.6 469.207C185.442 469.207 185.258 469.181 185.101 469.102L158.672 456.387C158.121 456.125 157.911 455.468 158.174 454.916C158.436 454.365 159.092 454.154 159.644 454.417L186.073 467.132C186.624 467.395 186.834 468.051 186.571 468.577C186.387 468.997 185.994 469.207 185.6 469.207Z" fill="#212529"/>
<path d="M387.671 135.205C384.624 135.941 381.708 137.28 379.186 139.224C377.11 140.801 375.824 142.429 375.219 144.137C374.536 146.107 374.957 148.314 376.218 149.496C377.164 150.337 378.451 150.626 379.344 150.731C383.915 151.151 388.564 147.105 389.168 142.219C389.457 139.855 388.906 137.412 387.671 135.205ZM415.307 163.866C415.202 163.866 415.098 163.84 414.967 163.813C414.415 163.629 414.073 162.999 414.257 162.421C417.12 153.647 413.312 143.139 405.43 138.016C400.938 135.074 395.316 134.023 389.931 134.785C391.139 137.228 391.691 139.907 391.376 142.508C390.614 148.603 384.913 153.463 379.133 152.911C377.373 152.754 375.85 152.123 374.746 151.099C372.802 149.338 372.172 146.239 373.144 143.401C373.879 141.273 375.43 139.329 377.847 137.464C380.395 135.52 383.311 134.128 386.384 133.287C385.334 131.974 384.02 130.844 382.523 129.977C378.425 127.639 373.066 127.192 367.811 128.769C363.424 130.056 359.063 132.657 354.545 136.702C354.072 137.096 353.389 137.07 352.969 136.597C352.575 136.151 352.627 135.468 353.073 135.047C357.855 130.792 362.478 128.033 367.18 126.641C373.012 124.907 379.002 125.432 383.599 128.059C385.675 129.242 387.409 130.87 388.722 132.762C394.896 131.685 401.437 132.788 406.638 136.151C415.307 141.825 419.511 153.384 416.358 163.104C416.227 163.577 415.78 163.866 415.307 163.866Z" fill="#212529"/>
<path d="M502.816 252.083C500.925 252.083 499.085 253.291 498.665 254.946C498.087 257.258 499.979 259.596 501.949 261.041C504.156 262.617 506.73 263.721 509.488 264.246C509.488 264.193 509.515 264.115 509.515 264.062C509.62 261.908 509.62 259.123 508.622 256.68C507.624 254.316 505.758 252.582 503.709 252.188C503.42 252.109 503.131 252.083 502.816 252.083ZM498.481 281.059C494.488 281.059 490.6 279.246 487.763 277.696C487.237 277.407 487.028 276.724 487.317 276.199C487.605 275.674 488.288 275.464 488.814 275.752C494.252 278.747 498.35 279.562 501.739 278.301C506.993 276.383 508.701 270.262 509.279 266.453C506.127 265.849 503.158 264.64 500.662 262.827C498.088 260.962 495.671 257.784 496.538 254.395C497.326 251.347 500.793 249.351 504.13 250.008C506.888 250.585 509.384 252.792 510.645 255.84C511.827 258.703 511.827 261.803 511.696 264.194C511.696 264.299 511.696 264.43 511.696 264.561C514.191 264.771 516.791 264.561 519.34 263.905C524.909 262.46 530.268 258.861 534.445 253.764C534.839 253.291 535.523 253.212 535.996 253.607C536.469 254.001 536.547 254.684 536.153 255.157C531.687 260.621 525.908 264.482 519.918 266.032C517.108 266.768 514.243 267.004 511.459 266.742C510.513 273.625 507.256 278.642 502.501 280.376C501.187 280.875 499.821 281.059 498.481 281.059Z" fill="#212529"/>
<path d="M166.709 209.367C166.578 211.048 166.63 212.756 166.893 214.437C167.235 216.775 168.206 219.98 170.676 221.951C172.593 223.474 175.93 224 177.927 222.187C179.267 220.979 179.818 218.824 179.293 216.828C178.846 215.015 177.559 213.255 175.694 211.863C173.119 209.998 169.888 209.131 166.709 209.367ZM153.416 225.812C152.891 225.812 152.418 225.418 152.339 224.867C151.472 218.824 154.52 212.415 159.748 209.288C161.298 208.343 162.979 207.738 164.739 207.397C165.501 202.616 167.681 197.966 171.044 194.183C175.799 188.85 182.866 185.356 190.405 184.62C196.973 183.99 206.088 185.855 210.081 193.158C210.37 193.71 210.16 194.367 209.635 194.656C209.109 194.945 208.427 194.761 208.138 194.235C204.88 188.246 196.999 186.197 190.616 186.827C183.628 187.51 177.085 190.715 172.698 195.654C169.756 198.938 167.786 202.983 167.025 207.16C170.571 207.003 174.143 208.001 176.981 210.103C179.266 211.784 180.842 213.964 181.447 216.276C182.156 219.087 181.341 222.056 179.397 223.816C176.508 226.443 171.989 225.786 169.31 223.658C166.262 221.268 165.133 217.511 164.713 214.753C164.45 213.098 164.371 211.39 164.476 209.709C163.216 209.998 162.006 210.497 160.877 211.154C156.384 213.859 153.758 219.35 154.519 224.551C154.598 225.156 154.179 225.707 153.574 225.786C153.522 225.812 153.469 225.812 153.416 225.812Z" fill="#212529"/>
<path d="M450.141 171.012C449.72 171.012 449.326 170.749 449.142 170.355C448.906 169.804 449.143 169.147 449.694 168.884L469.923 159.716L447.514 108.804C447.277 108.252 447.514 107.595 448.066 107.359C448.644 107.123 449.274 107.359 449.536 107.937L472.392 159.821C472.628 160.373 472.392 161.029 471.841 161.292L450.614 170.907C450.456 170.96 450.298 171.012 450.141 171.012Z" fill="#212529"/>
<path d="M233.123 161.37C232.571 161.37 232.072 160.95 232.02 160.372L230.286 142.167L197.08 122.595L182.158 149.339C181.974 149.654 181.659 149.864 181.318 149.89C180.95 149.943 180.609 149.785 180.373 149.522L158.331 124.224C157.937 123.751 157.964 123.068 158.437 122.674C158.884 122.28 159.592 122.306 159.987 122.779L181.003 146.895L195.714 120.546C195.846 120.283 196.108 120.1 196.371 120.021C196.66 119.942 196.975 119.995 197.238 120.126L231.888 140.538C232.204 140.722 232.414 141.037 232.44 141.379L234.227 160.162C234.28 160.766 233.833 161.318 233.229 161.37C233.202 161.37 233.149 161.37 233.123 161.37Z" fill="#212529"/>
<path d="M438.135 263.221C437.531 263.221 437.032 262.722 437.032 262.117V236.031C437.032 235.716 437.19 235.4 437.426 235.19C437.689 234.98 438.004 234.875 438.319 234.954L463.565 239.236L478.592 219.507C478.96 219.034 479.669 218.929 480.141 219.297C480.641 219.664 480.72 220.347 480.352 220.847L464.905 241.101C464.668 241.416 464.248 241.6 463.854 241.521L439.239 237.344V262.117C439.239 262.722 438.74 263.221 438.135 263.221Z" fill="#212529"/>
<path d="M236.012 227.914C235.54 227.914 235.119 227.625 234.962 227.178C234.909 226.994 229.866 211.179 243.474 204.191C256.924 197.282 265.961 204.717 266.329 205.032C266.802 205.426 266.854 206.135 266.46 206.582C266.066 207.055 265.383 207.107 264.91 206.713C264.568 206.424 256.556 199.936 244.498 206.135C232.571 212.256 236.854 225.891 237.038 226.469C237.248 227.047 236.932 227.677 236.354 227.861C236.223 227.914 236.118 227.914 236.012 227.914Z" fill="#212529"/>
<path d="M335.737 206.635C335.5 207.896 334.239 208.736 332.978 208.5C331.691 208.237 330.85 207.003 331.113 205.715C331.349 204.428 332.584 203.614 333.871 203.85C335.158 204.113 335.999 205.347 335.737 206.635Z" fill="#212529"/>
<path d="M314.795 202.536C314.558 203.823 313.324 204.664 312.036 204.401C310.749 204.138 309.908 202.904 310.171 201.616C310.407 200.355 311.668 199.515 312.929 199.751C314.216 200.014 315.057 201.249 314.795 202.536Z" fill="#212529"/>
</svg>
