<svg width="461" height="406" viewBox="0 0 461 406" fill="none" xmlns="http://www.w3.org/2000/svg">
<path d="M411.072 277.064C411.072 263.456 400.047 252.431 386.439 252.431C372.831 252.431 361.806 263.456 361.806 277.064C361.806 290.672 372.831 301.697 386.439 301.697C400.047 301.697 411.072 290.672 411.072 277.064Z" fill="#5a57ff"/>
<path d="M367.936 195.516C367.936 280.925 298.705 350.157 213.296 350.157C127.886 350.157 58.6426 280.925 58.6426 195.516C58.6426 110.107 127.886 40.8758 213.296 40.8758C298.705 40.8758 367.936 110.107 367.936 195.516Z" fill="#5a57ff"/>
<path d="M224.433 229.449L134.863 288.723L75.5898 199.154L165.158 139.88L224.433 229.449Z" fill="#FFC657"/>
<path d="M76.8701 199.415L135.125 287.432L223.141 229.188L164.899 141.172L76.8701 199.415ZM134.864 289.654C134.554 289.654 134.256 289.505 134.082 289.244L74.8089 199.663C74.6723 199.465 74.6224 199.216 74.6721 198.968C74.7218 198.732 74.8712 198.509 75.0698 198.385L164.638 139.098C164.849 138.962 165.097 138.925 165.345 138.962C165.581 139.012 165.793 139.161 165.929 139.372L225.203 228.94C225.488 229.362 225.376 229.946 224.942 230.231L135.373 289.505C135.212 289.604 135.038 289.654 134.864 289.654Z" fill="#212529"/>
<path d="M179.772 161.968L157.684 176.582L143.058 154.494L165.158 139.88L179.772 161.968Z" fill="#212529"/>
<path d="M187.869 231.125C173.913 236.824 168.077 260.34 168.077 260.34C168.077 260.34 142.898 212.576 133.847 193.667C124.795 174.757 114.676 163.632 98.0015 169.17C93.8298 170.548 90.8872 172.522 88.8137 174.707C82.0098 165.818 73.0337 160.417 60.4812 165.035C54.4967 167.245 51.3426 171.281 49.7162 175.452C29.6272 174.794 23.2206 194.399 28.7332 207.237C30.1983 210.627 44.9731 248.148 56.4081 269.553C53.5028 266.697 39.5479 253.176 28.8205 245.826C16.7771 237.594 1.40596 241.232 0.934153 257.969C0.710667 265.716 11.239 278.84 27.7894 293.068C39.9943 303.56 54.3847 314.474 66.6765 323.736V338.734C66.6765 375.2 96.2383 404.75 132.691 404.75C169.157 404.75 198.72 375.2 198.72 338.734V311.407C198.72 311.407 216.723 277.66 218.35 251.723C219.405 234.937 201.824 225.426 187.869 231.125Z" fill="white"/>
<path d="M16.0819 242.511C13.6857 242.511 11.4013 243.02 9.38995 244.05C4.72156 246.422 2.05194 251.376 1.8657 257.994C1.66704 265.058 11.5868 277.909 28.398 292.361C40.3297 302.616 54.1244 313.12 67.2356 322.991C67.4715 323.165 67.6081 323.45 67.6081 323.736V338.734C67.6081 374.629 96.8097 403.819 132.692 403.819C168.586 403.819 197.789 374.629 197.789 338.734V311.407C197.789 311.258 197.826 311.096 197.888 310.972C198.074 310.637 215.83 277.102 217.419 251.661C217.853 244.758 214.911 238.513 209.349 234.527C203.24 230.132 195.144 229.164 188.216 231.982C174.869 237.445 169.034 260.34 168.984 260.564C168.885 260.936 168.575 261.222 168.19 261.271C167.805 261.309 167.432 261.122 167.258 260.775C166.998 260.303 141.967 212.775 133.015 194.064C122.585 172.286 112.528 165.333 98.2997 170.051C94.637 171.256 91.6695 173.044 89.4843 175.341C89.2981 175.539 89.0253 175.651 88.7646 175.626C88.4915 175.614 88.2429 175.49 88.0691 175.266C80.2843 165.085 71.3571 162.031 60.8035 165.917C55.862 167.73 52.4232 171.057 50.5856 175.788C50.449 176.148 50.1258 176.408 49.6913 176.384C39.7213 176.073 34.3458 180.779 31.6019 184.802C27.3804 190.985 26.573 199.85 29.5901 206.865C29.8136 207.361 30.298 208.591 31.0305 210.378C35.103 220.398 47.4816 250.867 57.2281 269.118C57.4392 269.516 57.3273 270.025 56.9672 270.298C56.5947 270.571 56.0737 270.534 55.7508 270.211C53.0442 267.554 39.0014 253.921 28.2864 246.596C24.363 243.901 20.0675 242.511 16.0819 242.511ZM132.692 405.681C95.7792 405.681 65.7457 375.647 65.7457 338.734V324.208C52.7214 314.387 39.0514 303.97 27.1942 293.776C9.68774 278.728 -0.207762 265.667 0.00330893 257.931C0.21438 250.606 3.24348 245.081 8.54508 242.387C14.5171 239.345 22.4882 240.363 29.3418 245.056C37.4121 250.581 47.3323 259.62 52.9815 264.971C43.7068 246.521 33.0297 220.249 29.3049 211.086C28.5848 209.311 28.1008 208.094 27.8897 207.61C24.6243 200.024 25.5058 190.438 30.0625 183.759C34.1597 177.762 40.7768 174.496 48.7727 174.496C48.8844 174.496 48.9964 174.509 49.0957 174.509C51.194 169.58 54.9066 166.103 60.1585 164.166C71.2956 160.069 80.6944 163.061 88.9014 173.304C91.1983 171.144 94.1657 169.456 97.7167 168.276C116.75 161.969 127.08 177.364 134.691 193.257C142.55 209.708 162.888 248.47 167.817 257.845C169.692 251.699 175.738 235.074 187.521 230.269C195.032 227.19 203.811 228.245 210.441 233.013C216.525 237.383 219.753 244.224 219.281 251.773C217.729 276.555 201.166 308.737 199.651 311.63V338.734C199.651 375.647 169.617 405.681 132.692 405.681Z" fill="#212529"/>
<path d="M236.798 148.41H189.779V101.391H236.798V148.41Z" fill="white"/>
<path d="M206.727 118.339H189.779V101.391H206.727V118.339Z" fill="#FFC657"/>
<path d="M190.711 147.479H235.867V102.322H190.711V147.479ZM236.798 149.342H189.78C189.271 149.342 188.849 148.932 188.849 148.41V101.391C188.849 100.882 189.271 100.46 189.78 100.46H236.798C237.32 100.46 237.73 100.882 237.73 101.391V148.41C237.73 148.932 237.32 149.342 236.798 149.342Z" fill="#212529"/>
<path d="M303.696 108.543L266.1 62.492C266.1 62.492 266.062 104.942 266.1 116.774C266.174 136.789 299.263 146.771 303.696 108.543Z" fill="white"/>
<path d="M267.031 65.0994C267.019 74.5231 266.994 106.78 267.031 116.775C267.069 125.54 274.146 133.064 282.812 133.548C290.957 134.008 300.418 127.738 302.727 108.816L267.031 65.0994ZM283.644 135.436C283.334 135.436 283.011 135.423 282.701 135.411C273.066 134.865 265.206 126.509 265.169 116.775C265.132 105.079 265.169 62.9142 265.169 62.4921C265.169 62.0948 265.417 61.7471 265.79 61.6105C266.162 61.4864 266.572 61.5982 266.821 61.8961L304.416 107.947C304.577 108.145 304.652 108.394 304.627 108.642C302.33 128.446 292.46 135.436 283.644 135.436Z" fill="#212529"/>
<path d="M460.051 155.04C459.232 119.854 430.477 91.744 395.265 91.744H371.613C371.613 91.744 356.863 56.5573 339.518 37.0891C324.507 20.2531 304.591 14.3183 296.471 23.6178C283.981 20.8615 268.784 23.804 265.941 52.4848C258.975 53.9127 251.787 55.713 246.15 57.8486C229.922 63.982 206.99 74.1631 215.631 94.997C224.285 115.831 271.404 102.881 281.945 101.255C294.932 99.2433 301.686 110.095 302.27 128.806C302.854 147.504 290.624 159.386 281.535 159.945C272.447 160.503 248.037 142.947 234.107 142.376C220.163 141.805 201.85 159.758 222.733 181.039C243.605 202.32 288.6 220.063 307.609 221.019C317.442 221.503 358.328 221.491 395.501 221.354C431.793 221.23 460.908 191.32 460.051 155.04Z" fill="white"/>
<path d="M428.774 151.055C429.519 183.088 409.641 210.726 381.37 221.404C386.088 221.391 390.818 221.379 395.499 221.354C431.791 221.23 460.906 191.32 460.049 155.04C459.242 120.152 430.959 92.2282 396.157 91.7564C415.364 104.595 428.203 126.273 428.774 151.055Z" fill="#212529"/>
<path d="M233.423 143.295C226.221 143.295 218.685 148.224 215.681 154.978C212.217 162.763 214.96 171.79 223.39 180.381C244.286 201.675 288.909 219.144 307.657 220.087C317.739 220.584 360.984 220.547 395.5 220.423C412.795 220.361 428.974 213.507 441.03 201.116C453.098 188.712 459.529 172.361 459.119 155.065C458.324 120.661 429.681 92.6752 395.264 92.6752H371.612C371.24 92.6752 370.892 92.4518 370.756 92.1041C370.607 91.7565 355.856 56.8304 338.821 37.7099C329.311 27.0446 316.969 20.1662 307.334 20.1662C307.297 20.1662 307.273 20.1662 307.235 20.1662C302.964 20.1786 299.475 21.594 297.166 24.2386C296.942 24.4869 296.594 24.5987 296.272 24.5242C288.785 22.8853 282.577 23.7917 277.834 27.2309C271.787 31.6137 268.1 40.1435 266.871 52.5842C266.821 52.9815 266.523 53.3167 266.126 53.4036C258.006 55.0674 251.401 56.8553 246.472 58.7177C233.833 63.4978 220.337 69.7182 216.053 79.651C214.091 84.1828 214.24 89.2236 216.499 94.6369C223.713 112.044 260.303 104.619 275.935 101.453C278.43 100.944 280.404 100.547 281.807 100.336C286.823 99.5536 291.107 100.597 294.509 103.427C299.823 107.835 302.828 116.601 303.2 128.768C303.821 148.547 290.809 160.305 281.584 160.864C277.065 161.149 269.478 157.437 260.713 153.141C251.574 148.671 241.219 143.605 234.068 143.307C233.857 143.295 233.634 143.295 233.423 143.295ZM356.241 222.372C333.793 222.372 313.99 222.26 307.558 221.95C288.537 220.994 243.244 203.276 222.062 181.697C209.919 169.306 211.782 159.163 213.979 154.221C217.369 146.61 226.022 141.11 234.142 141.445C241.691 141.755 252.233 146.92 261.532 151.477C269.702 155.475 277.425 159.249 281.472 159.014C290.151 158.48 301.897 146.734 301.35 128.83C300.978 117.209 298.209 108.915 293.317 104.855C290.35 102.385 286.563 101.478 282.093 102.173C280.74 102.385 278.778 102.782 276.295 103.278C258.863 106.817 222.583 114.167 214.774 95.3571C212.328 89.4471 212.179 83.922 214.339 78.9184C218.908 68.34 232.814 61.8961 245.813 56.9794C250.693 55.1295 257.174 53.354 265.083 51.7151C266.437 39.0881 270.36 30.3472 276.742 25.7285C281.82 22.041 288.351 20.9857 296.136 22.5997C298.805 19.8062 302.617 18.3162 307.223 18.3038C307.26 18.3038 307.297 18.3038 307.334 18.3038C317.627 18.3038 330.218 25.2567 340.212 36.4683C356.241 54.4714 370.221 86.1693 372.22 90.8129H395.264C412.535 90.8129 428.849 97.4554 441.203 109.536C453.557 121.604 460.584 137.757 460.981 155.016C461.404 172.82 454.786 189.656 442.37 202.407C429.954 215.171 413.305 222.223 395.5 222.285C382.898 222.335 369.141 222.372 356.241 222.372Z" fill="#212529"/>
<path d="M266.732 53.3909C266.335 53.3909 265.974 53.1302 265.85 52.7453C265.689 52.2486 265.962 51.7272 266.447 51.5658C284.785 45.7179 311.355 47.2326 311.628 47.245C312.137 47.2823 312.522 47.7169 312.497 48.2383C312.46 48.7474 312.026 49.1199 311.517 49.1074C311.243 49.095 285.021 47.6051 267.018 53.3412C266.919 53.3785 266.831 53.3909 266.732 53.3909Z" fill="#212529"/>
<path d="M315.529 28.522C315.43 28.522 315.318 28.4972 315.219 28.46C315.119 28.4227 306.043 25.1821 296.409 24.5489C295.9 24.5117 295.502 24.0771 295.54 23.5557C295.577 23.0466 296.011 22.6617 296.533 22.6865C306.441 23.3446 315.467 26.5727 315.852 26.7093C316.324 26.8831 316.585 27.417 316.411 27.9012C316.274 28.2861 315.914 28.522 315.529 28.522Z" fill="#212529"/>
<path d="M116.453 113.224C116.453 125.826 106.235 136.044 93.6327 136.044C81.0429 136.044 70.8242 125.826 70.8242 113.224C70.8242 100.634 81.0429 90.4155 93.6327 90.4155C106.235 90.4155 116.453 100.634 116.453 113.224Z" fill="#FFC657"/>
<path d="M130.173 372.63C103.069 372.63 79.3916 357.942 66.6777 336.077V338.734C66.6777 375.2 96.2395 404.75 132.693 404.75C169.158 404.75 198.721 375.2 198.721 338.734V325.536C188.143 353.075 161.436 372.63 130.173 372.63Z" fill="#212529"/>
<path d="M65.7581 288.921C65.4229 288.921 65.0999 288.735 64.9385 288.412L55.5771 269.975C55.3412 269.515 55.527 268.957 55.9864 268.721C56.4458 268.485 57.0045 268.671 57.228 269.13L66.5894 287.58C66.8253 288.04 66.6395 288.599 66.1801 288.822C66.0435 288.896 65.9071 288.921 65.7581 288.921Z" fill="#212529"/>
<path d="M83.9483 277.995C83.6131 277.995 83.2901 277.822 83.1287 277.499C82.9921 277.25 69.9548 252.381 55.5275 219.777C40.9139 186.713 48.637 175.378 48.9723 174.906C49.2702 174.484 49.8412 174.397 50.2633 174.695C50.6855 174.993 50.773 175.576 50.4874 175.986C50.3757 176.148 43.174 187.223 57.2289 219.02C71.6313 251.562 84.6428 276.381 84.767 276.63C85.0153 277.089 84.8423 277.648 84.3829 277.884C84.2463 277.958 84.0973 277.995 83.9483 277.995Z" fill="#212529"/>
<path d="M115.793 265.319C115.458 265.319 115.135 265.145 114.961 264.835C113.757 262.55 85.324 208.913 83.0271 196.758C80.2832 182.194 87.8326 174.372 88.1554 174.049C88.5155 173.689 89.0992 173.677 89.4717 174.037C89.8318 174.409 89.8318 174.993 89.4717 175.353C89.36 175.465 82.3075 182.89 84.8652 196.41C87.1001 208.293 116.314 263.407 116.612 263.953C116.848 264.413 116.675 264.971 116.228 265.22C116.091 265.294 115.942 265.319 115.793 265.319Z" fill="#212529"/>
<path d="M290.337 283.595C297.24 297.55 291.715 314.523 277.834 321.687C263.94 328.863 246.906 323.549 239.531 309.855L208.702 325.772C224.893 356.489 262.848 368.47 293.751 352.503C324.655 336.536 336.847 298.655 321.154 267.678L290.337 283.595Z" fill="white"/>
<path d="M209.968 326.169C226.109 355.731 263.294 367.191 293.316 351.671C323.35 336.164 335.518 299.214 320.743 268.944L291.565 284.017C298.046 298.196 292.199 315.318 278.256 322.519C264.313 329.72 246.967 324.58 239.158 311.096L209.968 326.169ZM264.884 360.462C241.753 360.462 219.342 347.972 207.882 326.206C207.77 325.983 207.745 325.735 207.82 325.486C207.894 325.25 208.056 325.064 208.28 324.94L239.095 309.023C239.555 308.787 240.101 308.961 240.337 309.408C247.451 322.606 264.076 327.746 277.399 320.868C290.721 313.977 296.147 297.451 289.504 284.017C289.281 283.558 289.455 283.011 289.914 282.775L320.73 266.846C320.954 266.734 321.202 266.722 321.438 266.796C321.674 266.871 321.873 267.032 321.984 267.256C337.864 298.593 325.386 337.207 294.173 353.335C284.811 358.165 274.779 360.449 264.884 360.462Z" fill="#212529"/>
<path d="M162.911 94.9473C162.675 94.9473 162.439 94.8604 162.253 94.6742L149.353 81.774C148.98 81.4015 148.98 80.818 149.353 80.4579C149.713 80.0854 150.296 80.0854 150.669 80.4579L163.569 93.3581C163.941 93.7305 163.941 94.3141 163.569 94.6742C163.395 94.8604 163.16 94.9473 162.911 94.9473Z" fill="#212529"/>
<path d="M150.01 94.9473C149.762 94.9473 149.526 94.8604 149.353 94.6742C148.98 94.3141 148.98 93.7305 149.353 93.3581L162.253 80.4579C162.625 80.0854 163.209 80.0854 163.569 80.4579C163.941 80.818 163.941 81.4015 163.569 81.774L150.669 94.6742C150.483 94.8604 150.246 94.9473 150.01 94.9473Z" fill="#212529"/>
<path d="M279.933 236.836C274.06 236.836 269.279 241.617 269.279 247.489C269.279 253.362 274.06 258.142 279.933 258.142C285.806 258.142 290.585 253.362 290.585 247.489C290.585 241.617 285.806 236.836 279.933 236.836ZM279.933 260.005C273.042 260.005 267.417 254.393 267.417 247.489C267.417 240.586 273.042 234.974 279.933 234.974C286.836 234.974 292.448 240.586 292.448 247.489C292.448 254.393 286.836 260.005 279.933 260.005Z" fill="#212529"/>
<path d="M108.752 37.6105C107.349 40.1185 106.579 42.4403 106.368 44.7C106.045 48.2634 107.449 52.9069 111.31 54.7196C113.607 55.7874 116.562 55.775 120.348 54.6451C124.21 53.5029 126.979 51.9012 128.816 49.7657C131.002 47.208 131.672 43.6322 130.418 41.0745C128.233 36.58 121.739 36.2323 118.064 36.4186C114.948 36.58 111.844 36.9897 108.752 37.6105ZM32.1585 142.773C32.1088 142.773 32.0588 142.761 32.0091 142.761C31.5001 142.674 31.153 142.202 31.2399 141.693C36.0945 111.845 44.0401 89.7698 56.2202 72.2013C69.3935 53.2173 88.0296 40.193 107.547 35.9716C108.367 34.581 109.237 33.3643 110.019 32.3462C115.035 25.7285 121.801 19.744 130.12 14.5665C158.702 -3.21309 196.57 -4.85201 226.592 10.3948C227.051 10.6182 227.237 11.177 227.001 11.6364C226.765 12.0957 226.206 12.282 225.747 12.0461C196.296 -2.90266 159.148 -1.28864 131.101 16.1557C122.968 21.209 116.376 27.0321 111.496 33.4636C110.987 34.1465 110.503 34.8169 110.068 35.4749C112.688 35.0031 115.333 34.7052 117.965 34.5686C122.1 34.3451 129.437 34.7921 132.094 40.2675C133.683 43.5205 132.926 47.8164 130.219 50.9824C128.146 53.4035 125.092 55.1791 120.883 56.4331C116.637 57.6871 113.246 57.687 110.527 56.4082C106.517 54.5334 104.046 49.6539 104.518 44.5386C104.729 42.2292 105.449 40.0813 106.368 38.1444C87.893 42.6141 70.3004 55.1666 57.7479 73.269C45.7293 90.5892 37.8945 112.429 33.0771 141.991C33.0026 142.451 32.6055 142.773 32.1585 142.773Z" fill="#FFC657"/>
</svg>
