<svg xmlns="http://www.w3.org/2000/svg" width="20" height="20" viewBox="0 0 20 20" fill="none">
    <path d="M9.99996 1.6665C5.39996 1.6665 1.66663 5.39984 1.66663 9.99984C1.66663 14.5998 5.39996 18.3332 9.99996 18.3332C14.6 18.3332 18.3333 14.5998 18.3333 9.99984C18.3333 5.39984 14.6 1.6665 9.99996 1.6665ZM10.8333 15.8332H9.16663V14.1665H10.8333V15.8332ZM12.5583 9.37484L11.8083 10.1415C11.3916 10.5665 11.0916 10.9498 10.9416 11.5498C10.875 11.8165 10.8333 12.1165 10.8333 12.4998H9.16663V12.0832C9.16663 11.6998 9.23329 11.3332 9.34996 10.9915C9.51663 10.5082 9.79163 10.0748 10.1416 9.72484L11.175 8.67484C11.5583 8.30817 11.7416 7.75817 11.6333 7.17484C11.525 6.57484 11.0583 6.0665 10.475 5.89984C9.54996 5.6415 8.69163 6.1665 8.41663 6.95817C8.31663 7.2665 8.05829 7.49984 7.73329 7.49984H7.48329C6.99996 7.49984 6.66663 7.03317 6.79996 6.5665C7.15829 5.3415 8.19996 4.40817 9.49163 4.20817C10.7583 4.00817 11.9666 4.6665 12.7166 5.70817C13.7 7.0665 13.4083 8.52484 12.5583 9.37484Z" fill="#5A57FF"/>
</svg>