<svg width="80" height="80" viewBox="0 0 80 80" fill="none" xmlns="http://www.w3.org/2000/svg">
<path d="M13.3267 30.0038C14.1934 30.8705 14.4601 32.1038 14.1601 33.2705C12.9934 37.8038 12.9601 42.8371 14.4934 47.8705C17.4267 57.5705 25.9601 64.8705 35.9601 66.3705C54.3601 69.0705 69.9267 52.8371 66.0601 34.3038C63.8934 23.8705 55.2934 15.6038 44.8267 13.7705C40.7934 13.0705 36.8934 13.2705 33.2934 14.2038C32.1267 14.5038 30.8601 14.2038 30.0267 13.3705C28.1601 11.5038 29.0934 8.4038 31.5934 7.73713C36.4934 6.47046 41.7934 6.27046 47.2601 7.43713C60.5267 10.3038 70.8934 21.3705 72.9267 34.7705C76.3934 57.4705 56.8601 76.7038 34.1267 72.8371C20.76 70.5371 9.92672 59.9705 7.32672 46.6705C6.29338 41.3705 6.52672 36.2705 7.72672 31.5705C8.39338 29.0705 11.4934 28.1705 13.3267 30.0038ZM23.3267 18.3371C23.3267 21.1038 21.0934 23.3371 18.3267 23.3371C15.5601 23.3371 13.3267 21.1038 13.3267 18.3371C13.3267 15.5705 15.5601 13.3371 18.3267 13.3371C21.0934 13.3371 23.3267 15.5705 23.3267 18.3371ZM40.0934 29.9705H39.8601L35.9934 41.0038H43.96L40.0934 29.9705ZM39.9934 60.0038C51.0267 60.0038 59.9934 51.0371 59.9934 40.0038C59.9934 28.9705 51.0267 20.0038 39.9934 20.0038C28.9601 20.0038 19.9934 28.9705 19.9934 40.0038C19.9934 51.0371 28.9601 60.0038 39.9934 60.0038ZM28.6934 48.7705L36.7934 27.2371C37.2934 25.9038 38.5601 25.0038 39.9934 25.0038C41.4267 25.0038 42.7267 25.9038 43.2267 27.2371L51.3267 48.7705C51.8601 50.1705 50.8267 51.6705 49.3267 51.6705C48.4267 51.6705 47.5934 51.1038 47.2934 50.2371L45.4267 44.8705H34.66L32.7601 50.2705C32.4601 51.1371 31.6601 51.7038 30.7267 51.7038C29.1934 51.6705 28.1601 50.1705 28.6934 48.7705Z" fill="#5A57FF"/>
</svg>
