<svg width="68" height="68" viewBox="0 0 68 68" fill="none" xmlns="http://www.w3.org/2000/svg">
<path d="M48.1333 19.8665C44.2333 15.9665 39.1333 13.9998 34 13.9998V33.9998L19.8666 48.1332C27.6666 55.9332 40.3333 55.9332 48.1666 48.1332C55.9666 40.3332 55.9666 27.6665 48.1333 19.8665ZM34 0.666504C15.6 0.666504 0.666626 15.5998 0.666626 33.9998C0.666626 52.3998 15.6 67.3332 34 67.3332C52.4 67.3332 67.3333 52.3998 67.3333 33.9998C67.3333 15.5998 52.4 0.666504 34 0.666504ZM34 60.6665C19.2666 60.6665 7.33329 48.7332 7.33329 33.9998C7.33329 19.2665 19.2666 7.33317 34 7.33317C48.7333 7.33317 60.6666 19.2665 60.6666 33.9998C60.6666 48.7332 48.7333 60.6665 34 60.6665Z" fill="#344054"/>
</svg>
