<svg width="80" height="80" viewBox="0 0 80 80" fill="none" xmlns="http://www.w3.org/2000/svg">
<path d="M53.3333 38.4332C52.3667 37.4665 50.7667 37.4665 49.8 38.4332L35.3 52.9332L30 47.6332C29.0333 46.6665 27.4333 46.6665 26.4667 47.6332C25.5 48.5998 25.5 50.1998 26.4667 51.1665L32.9333 57.6332C34.2333 58.9332 36.3333 58.9332 37.6333 57.6332L53.3 41.9665C54.3 40.9998 54.3 39.3998 53.3333 38.4332ZM63.3333 13.3332H60V9.99984C60 8.1665 58.5 6.6665 56.6667 6.6665C54.8333 6.6665 53.3333 8.1665 53.3333 9.99984V13.3332H26.6667V9.99984C26.6667 8.1665 25.1667 6.6665 23.3333 6.6665C21.5 6.6665 20 8.1665 20 9.99984V13.3332H16.6667C12.9667 13.3332 10.0333 16.3332 10.0333 19.9998L10 66.6665C10 70.3332 12.9667 73.3332 16.6667 73.3332H63.3333C67 73.3332 70 70.3332 70 66.6665V19.9998C70 16.3332 67 13.3332 63.3333 13.3332ZM60 66.6665H20C18.1667 66.6665 16.6667 65.1665 16.6667 63.3332V29.9998H63.3333V63.3332C63.3333 65.1665 61.8333 66.6665 60 66.6665Z" fill="#344054"/>
</svg>
