<svg width="28" height="16" viewBox="0 0 28 16" fill="none" xmlns="http://www.w3.org/2000/svg">
<path d="M25.25 0.5H2.75C1.375 0.5 0.25 1.625 0.25 3V13C0.25 14.375 1.375 15.5 2.75 15.5H25.25C26.625 15.5 27.75 14.375 27.75 13V3C27.75 1.625 26.625 0.5 25.25 0.5ZM11.5 9.25H9V11.75C9 12.4375 8.4375 13 7.75 13C7.0625 13 6.5 12.4375 6.5 11.75V9.25H4C3.3125 9.25 2.75 8.6875 2.75 8C2.75 7.3125 3.3125 6.75 4 6.75H6.5V4.25C6.5 3.5625 7.0625 3 7.75 3C8.4375 3 9 3.5625 9 4.25V6.75H11.5C12.1875 6.75 12.75 7.3125 12.75 8C12.75 8.6875 12.1875 9.25 11.5 9.25ZM18.375 11.75C17.3375 11.75 16.5 10.9125 16.5 9.875C16.5 8.8375 17.3375 8 18.375 8C19.4125 8 20.25 8.8375 20.25 9.875C20.25 10.9125 19.4125 11.75 18.375 11.75ZM23.375 8C22.3375 8 21.5 7.1625 21.5 6.125C21.5 5.0875 22.3375 4.25 23.375 4.25C24.4125 4.25 25.25 5.0875 25.25 6.125C25.25 7.1625 24.4125 8 23.375 8Z" fill="#5A57FF"/>
</svg>
