<svg xmlns="http://www.w3.org/2000/svg" width="20" height="20" viewBox="0 0 20 20" fill="none">
	<path d="M10 10.125C11.3583 10.125 12.5583 10.45 13.5333 10.875C14.4333 11.275 15 14.175 15 15.15V15.6667C15 16.125 14.625 16.5 14.1667 16.5H5.83333C5.375 16.5 5 16.125 5 15.6667V15.1583C5 14.175 5.56667 11.275 6.46667 10.8833C7.44167 10.45 8.64167 10.125 10 10.125ZM3.33333 9.83333C4.25 9.83333 5 9.08333 5 8.16667C5 7.25 4.25 6.5 3.33333 6.5C2.41667 6.5 1.66667 7.25 1.66667 8.16667C1.66667 9.08333 2.41667 9.83333 3.33333 9.83333ZM4.275 11.25C3.96667 11.2 3.65833 11.1667 3.33333 11.1667C2.50833 11.1667 1.725 11.3417 1.01667 11.65C0.4 11.9167 0 14.5167 0 15.1917V15.6667C0 16.125 0.375 16.5 0.833333 16.5H3.75V15.1583C3.75 14.4667 3.94167 11.8167 4.275 11.25ZM16.6667 9.83333C17.5833 9.83333 18.3333 9.08333 18.3333 8.16667C18.3333 7.25 17.5833 6.5 16.6667 6.5C15.75 6.5 15 7.25 15 8.16667C15 9.08333 15.75 9.83333 16.6667 9.83333ZM20 15.1917C20 14.5167 19.6 11.9167 18.9833 11.65C18.275 11.3417 17.4917 11.1667 16.6667 11.1667C16.3417 11.1667 16.0333 11.2 15.725 11.25C16.0583 11.8167 16.25 14.4667 16.25 15.1583V16.5H19.1667C19.625 16.5 20 16.125 20 15.6667V15.1917ZM10 4C11.3833 4 12.5 5.11667 12.5 6.5C12.5 7.88333 11.3833 9 10 9C8.61667 9 7.5 7.88333 7.5 6.5C7.5 5.11667 8.61667 4 10 4Z" fill="#344054"/>
</svg>