<svg width="52" height="54" viewBox="0 0 52 54" fill="none" xmlns="http://www.w3.org/2000/svg">
<path d="M20.6208 17.5668L5.72079 2.66683C4.42078 1.36683 2.32079 1.36683 1.02079 2.66683C-0.279215 3.96683 -0.279215 6.06683 1.02079 7.36683L15.8875 22.2335L20.6208 17.5668ZM36.4875 3.16683L40.4541 7.1335L0.987451 46.6002C-0.312549 47.9002 -0.312549 50.0002 0.987451 51.3002C2.28745 52.6002 4.38745 52.6002 5.68745 51.3002L45.1875 11.8668L49.1541 15.8335C50.1875 16.8668 51.9875 16.1335 51.9875 14.6335V2.00016C51.9875 1.06683 51.2541 0.333496 50.3208 0.333496H37.6875C36.1875 0.333496 35.4541 2.1335 36.4875 3.16683ZM34.7541 31.7002L30.0541 36.4002L40.4874 46.8335L36.4875 50.8335C35.4541 51.8668 36.1875 53.6668 37.6875 53.6668H50.3208C51.2541 53.6668 51.9875 52.9335 51.9875 52.0002V39.3668C51.9875 37.8668 50.1875 37.1335 49.1541 38.2002L45.1875 42.1668L34.7541 31.7002Z" fill="#5A57FF"/>
</svg>
