<svg width="52" height="54" viewBox="0 0 52 54" fill="none" xmlns="http://www.w3.org/2000/svg">
<path fill-rule="evenodd" clip-rule="evenodd" d="M17.6073 14.2323C15.7526 15.4867 14.1934 17.1452 13.0564 19.0814L1.00833 7.03333C-0.291666 5.73333 -0.291666 3.63333 1.00833 2.33333C2.30833 1.03333 4.40833 1.03333 5.70833 2.33333L17.6073 14.2323ZM36.475 2.83333L40.4417 6.8L33.5433 13.6984C35.4951 14.8362 37.1668 16.402 38.4297 18.2672L45.175 11.5333L49.1417 15.5C50.175 16.5333 51.975 15.8 51.975 14.3V1.66667C51.975 0.733333 51.2417 0 50.3083 0H37.675C36.175 0 35.4417 1.8 36.475 2.83333ZM0.975 46.2667L13.0319 34.2098C14.1654 36.1543 15.7238 37.8208 17.5798 39.082L5.675 50.9667C4.375 52.2667 2.275 52.2667 0.975 50.9667C-0.325 49.6667 -0.325 47.5667 0.975 46.2667ZM40.475 46.5L33.5851 39.6101C35.5189 38.4745 37.1756 36.9179 38.4294 35.0662L45.175 41.8333L49.1417 37.8667C50.175 36.8 51.975 37.5333 51.975 39.0333V51.6667C51.975 52.6 51.2417 53.3333 50.3083 53.3333H37.675C36.175 53.3333 35.4417 51.5333 36.475 50.5L40.475 46.5ZM39 26.6665C39 19.4868 33.1797 13.6665 26 13.6665C18.8203 13.6665 13 19.4868 13 26.6665C13 33.8462 18.8203 39.6665 26 39.6665C33.1797 39.6665 39 33.8462 39 26.6665ZM23.3068 31.7573H21L24.5149 21.5757H27.2891L30.799 31.7573H28.4922L27.7383 29.4355H24.0621L23.3068 31.7573ZM25.9418 23.9023L27.1927 27.7554H24.6086L25.8622 23.9023H25.9418Z" fill="#5A57FF"/>
</svg>
