<svg width="20" height="21" viewBox="0 0 20 21" fill="none" xmlns="http://www.w3.org/2000/svg">
<path d="M7.98301 6.67344L2.39551 1.08594C1.90801 0.598437 1.12051 0.598437 0.633008 1.08594C0.145508 1.57344 0.145508 2.36094 0.633008 2.84844L6.20801 8.42344L7.98301 6.67344ZM13.933 1.27344L15.4205 2.76094L0.620508 17.5609C0.133008 18.0484 0.133008 18.8359 0.620508 19.3234C1.10801 19.8109 1.89551 19.8109 2.38301 19.3234L17.1955 4.53594L18.683 6.02344C19.0705 6.41094 19.7455 6.13594 19.7455 5.57344V0.835938C19.7455 0.485938 19.4705 0.210938 19.1205 0.210938H14.383C13.8205 0.210938 13.5455 0.885937 13.933 1.27344ZM13.283 11.9734L11.5205 13.7359L15.433 17.6484L13.933 19.1484C13.5455 19.5359 13.8205 20.2109 14.383 20.2109H19.1205C19.4705 20.2109 19.7455 19.9359 19.7455 19.5859V14.8484C19.7455 14.2859 19.0705 14.0109 18.683 14.4109L17.1955 15.8984L13.283 11.9734Z" fill="#5A57FF"/>
</svg>
