<svg width="52" height="54" viewBox="0 0 52 54" fill="none" xmlns="http://www.w3.org/2000/svg">
<path fill-rule="evenodd" clip-rule="evenodd" d="M17.6148 14.5608C15.7592 15.8141 14.1992 17.4716 13.061 19.407L1.02078 7.36683C-0.279215 6.06683 -0.279215 3.96683 1.02078 2.66683C2.32079 1.36683 4.42079 1.36683 5.72079 2.66683L17.6148 14.5608ZM36.4875 3.16683L40.4541 7.1335L33.5512 14.0365C35.5022 15.1754 37.173 16.7422 38.4347 18.6082L45.1875 11.8668L49.1541 15.8335C50.1875 16.8668 51.9874 16.1335 51.9874 14.6335V2.00016C51.9874 1.06683 51.2541 0.333496 50.3208 0.333496H37.6875C36.1875 0.333496 35.4541 2.1335 36.4875 3.16683ZM0.987451 46.6002L13.0365 34.5512C14.1711 36.4949 15.7304 38.1604 17.5872 39.4205L5.68745 51.3002C4.38745 52.6002 2.28745 52.6002 0.987451 51.3002C-0.312549 50.0002 -0.312549 47.9002 0.987451 46.6002ZM40.4874 46.8335L33.593 39.939C35.526 38.8023 37.1817 37.2447 38.4344 35.3922L45.1875 42.1668L49.1541 38.2002C50.1875 37.1335 51.9874 37.8668 51.9874 39.3668V52.0002C51.9874 52.9335 51.2541 53.6668 50.3208 53.6668H37.6875C36.1875 53.6668 35.4541 51.8668 36.4875 50.8335L40.4874 46.8335ZM35.1924 36.1924C37.6304 33.7544 39 30.4478 39 27C39 23.5522 37.6304 20.2456 35.1924 17.8076C32.7544 15.3696 29.4478 14 26 14C22.5522 14 19.2456 15.3696 16.8076 17.8076C14.3696 20.2456 13 23.5522 13 27C13 30.4478 14.3696 33.7544 16.8076 36.1924C19.2456 38.6304 22.5522 40 26 40C29.4478 40 32.7544 38.6304 35.1924 36.1924ZM23.2716 23.8036H21.931C21.8785 23.8046 21.8263 23.7947 21.7777 23.7748C21.7292 23.7548 21.6852 23.7251 21.6485 23.6875C21.6118 23.6499 21.5832 23.6052 21.5645 23.5562C21.5457 23.5071 21.5372 23.4547 21.5394 23.4022C21.6938 20.6462 23.9492 19.6875 26.0081 19.6875C28.2782 19.6875 30.3518 20.8738 30.3518 23.3291C30.3518 25.0825 29.3199 25.9178 28.3302 26.6701C27.1326 27.5785 26.689 27.9181 26.689 29.0849V29.2555C26.689 29.3632 26.6462 29.4666 26.57 29.5428C26.4938 29.6189 26.3905 29.6617 26.2827 29.6617H24.9649C24.8582 29.6618 24.7559 29.6199 24.6799 29.5451C24.6039 29.4703 24.5603 29.3686 24.5586 29.262L24.5537 28.9094C24.492 27.403 25.3581 26.4751 26.4517 25.6805C27.4121 24.959 28.0199 24.4845 28.0199 23.4526C28.0199 22.112 26.9994 21.5546 25.8846 21.5546C24.5814 21.5546 23.8501 22.3314 23.7039 23.3974C23.6746 23.62 23.4959 23.8036 23.2716 23.8036ZM27.3813 32.7671C27.3813 33.6332 26.7004 34.2735 25.7091 34.2735H25.7108C24.7601 34.2735 24.0695 33.6332 24.0695 32.7671C24.0695 31.8701 24.7601 31.2396 25.7091 31.2396C26.6987 31.2396 27.3813 31.8701 27.3813 32.7671Z" fill="#5A57FF"/>
</svg>
