<svg width="70" height="70" viewBox="0 0 70 70" fill="none" xmlns="http://www.w3.org/2000/svg">
<path d="M61.6667 33.3333H56.6667V20C56.6667 16.3333 53.6667 13.3333 50 13.3333H36.6667V8.33333C36.6667 3.73333 32.9333 0 28.3333 0C23.7333 0 20 3.73333 20 8.33333V13.3333H6.66667C3 13.3333 0.0333333 16.3333 0.0333333 20V32.6667H5C9.96667 32.6667 14 36.7 14 41.6667C14 46.6333 9.96667 50.6667 5 50.6667H0V63.3333C0 67 3 70 6.66667 70H19.3333V65C19.3333 60.0333 23.3667 56 28.3333 56C33.3 56 37.3333 60.0333 37.3333 65V70H50C53.6667 70 56.6667 67 56.6667 63.3333V50H61.6667C66.2667 50 70 46.2667 70 41.6667C70 37.0667 66.2667 33.3333 61.6667 33.3333Z" fill="#344054"/>
</svg>
