<svg width="26" height="24" viewBox="0 0 26 24" fill="none" xmlns="http://www.w3.org/2000/svg">
<path d="M19.875 15.3359H18V11.5859H19.875V15.3359ZM18 0.960938C17.3125 0.960938 16.75 1.52344 16.75 2.21094V3.46094H9.25V2.21094C9.25 1.52344 8.6875 0.960938 8 0.960938C7.3125 0.960938 6.75 1.52344 6.75 2.21094V3.46094H3C1.625 3.46094 0.5 4.58594 0.5 5.96094V20.9609C0.5 22.3359 1.625 23.4609 3 23.4609H23C24.375 23.4609 25.5 22.3359 25.5 20.9609V5.96094C25.5 4.58594 24.375 3.46094 23 3.46094H19.25V2.21094C19.25 1.52344 18.6875 0.960938 18 0.960938ZM9.875 16.2734C9.875 16.7859 9.45 17.2109 8.9375 17.2109H5.5C4.8125 17.2109 4.25 16.6484 4.25 15.9609V14.0859C4.25 13.3984 4.8125 12.8359 5.5 12.8359H8V11.5859H5.1875C4.675 11.5859 4.25 11.1609 4.25 10.6484C4.25 10.1359 4.675 9.71094 5.1875 9.71094H8.625C9.3125 9.71094 9.875 10.2734 9.875 10.9609V12.8359C9.875 13.5234 9.3125 14.0859 8.625 14.0859H6.125V15.3359H8.9375C9.45 15.3359 9.875 15.7609 9.875 16.2734ZM21.75 15.9609C21.75 16.6484 21.1875 17.2109 20.5 17.2109H17.375C16.6875 17.2109 16.125 16.6484 16.125 15.9609V10.9609C16.125 10.2734 16.6875 9.71094 17.375 9.71094H20.5C21.1875 9.71094 21.75 10.2734 21.75 10.9609V15.9609ZM13.9375 6.89844C13.9375 7.41094 13.5125 7.83594 13 7.83594C12.4875 7.83594 12.0625 7.41094 12.0625 6.89844C12.0625 6.38594 12.4875 5.96094 13 5.96094C13.5125 5.96094 13.9375 6.38594 13.9375 6.89844ZM13.9375 11.2734C13.9375 11.7859 13.5125 12.2109 13 12.2109C12.4875 12.2109 12.0625 11.7859 12.0625 11.2734C12.0625 10.7609 12.4875 10.3359 13 10.3359C13.5125 10.3359 13.9375 10.7609 13.9375 11.2734ZM13.9375 15.6484C13.9375 16.1609 13.5125 16.5859 13 16.5859C12.4875 16.5859 12.0625 16.1609 12.0625 15.6484C12.0625 15.1359 12.4875 14.7109 13 14.7109C13.5125 14.7109 13.9375 15.1359 13.9375 15.6484ZM13.9375 20.0234C13.9375 20.5359 13.5125 20.9609 13 20.9609C12.4875 20.9609 12.0625 20.5359 12.0625 20.0234C12.0625 19.5109 12.4875 19.0859 13 19.0859C13.5125 19.0859 13.9375 19.5109 13.9375 20.0234Z" fill="#344054"/>
</svg>
