<svg width="26" height="24" viewBox="0 0 26 24" fill="none" xmlns="http://www.w3.org/2000/svg">
<path d="M23 3.25H19.0375L17.4875 1.5625C17.025 1.05 16.35 0.75 15.65 0.75H10.35C9.65 0.75 8.975 1.05 8.5125 1.5625L6.9625 3.25H3C1.625 3.25 0.5 4.375 0.5 5.75V20.75C0.5 22.125 1.625 23.25 3 23.25H23C24.375 23.25 25.5 22.125 25.5 20.75V5.75C25.5 4.375 24.375 3.25 23 3.25ZM13 8.25C14.375 8.25 15.5 9.375 15.5 10.75C15.5 12.125 14.375 13.25 13 13.25C11.625 13.25 10.5 12.125 10.5 10.75C10.5 9.375 11.625 8.25 13 8.25ZM18 18.25H8V17.5375C8 16.525 8.6 15.625 9.525 15.225C10.5875 14.7625 11.7625 14.5 13 14.5C14.2375 14.5 15.4125 14.7625 16.475 15.225C17.4 15.625 18 16.525 18 17.5375V18.25Z" fill="#344054"/>
</svg>
