<svg width="80" height="80" viewBox="0 0 80 80" fill="none" xmlns="http://www.w3.org/2000/svg">
<path d="M53.3333 43.3332H43.3333C41.5 43.3332 40 44.8332 40 46.6665V56.6665C40 58.4998 41.5 59.9998 43.3333 59.9998H53.3333C55.1667 59.9998 56.6667 58.4998 56.6667 56.6665V46.6665C56.6667 44.8332 55.1667 43.3332 53.3333 43.3332ZM53.3333 9.99984V13.3332H26.6667V9.99984C26.6667 8.1665 25.1667 6.6665 23.3333 6.6665C21.5 6.6665 20 8.1665 20 9.99984V13.3332H16.6667C12.9667 13.3332 10.0333 16.3332 10.0333 19.9998L10 66.6665C10 70.3332 12.9667 73.3332 16.6667 73.3332H63.3333C67 73.3332 70 70.3332 70 66.6665V19.9998C70 16.3332 67 13.3332 63.3333 13.3332H60V9.99984C60 8.1665 58.5 6.6665 56.6667 6.6665C54.8333 6.6665 53.3333 8.1665 53.3333 9.99984ZM60 66.6665H20C18.1667 66.6665 16.6667 65.1665 16.6667 63.3332V29.9998H63.3333V63.3332C63.3333 65.1665 61.8333 66.6665 60 66.6665Z" fill="#344054"/>
</svg>
