<svg width="62" height="70" viewBox="0 0 62 70" fill="none" xmlns="http://www.w3.org/2000/svg">
<path d="M24.3384 6.66667H37.6718C39.5051 6.66667 41.0051 5.16667 41.0051 3.33333C41.0051 1.5 39.5051 0 37.6718 0H24.3384C22.5051 0 21.0051 1.5 21.0051 3.33333C21.0051 5.16667 22.5051 6.66667 24.3384 6.66667Z" fill="#5A57FF"/>
<path d="M54.4384 21.3L56.9384 18.8C58.2051 17.5333 58.2384 15.4333 56.9384 14.1333L56.9051 14.1C55.6051 12.8 53.5384 12.8333 52.2384 14.1L49.7384 16.6C44.5718 12.4667 38.0718 10 31.0051 10C15.0051 10 1.40509 23.2 1.00509 39.2C0.571761 56.1333 14.1384 70 31.0051 70C47.6051 70 61.0051 56.5667 61.0051 40C61.0051 32.9333 58.5384 26.4333 54.4384 21.3ZM34.3384 40C34.3384 41.8333 32.8384 43.3333 31.0051 43.3333C29.1718 43.3333 27.6718 41.8333 27.6718 40V26.6667C27.6718 24.8333 29.1718 23.3333 31.0051 23.3333C32.8384 23.3333 34.3384 24.8333 34.3384 26.6667V40Z" fill="#5A57FF"/>
</svg>
