<svg width="28" height="28" viewBox="0 0 28 28" fill="none" xmlns="http://www.w3.org/2000/svg">
<path d="M24.66 0.666664H3.34001C1.87334 0.666664 0.67334 1.86666 0.67334 3.33333V27.3333L5.99334 22H24.66C26.1267 22 27.3267 20.8 27.3267 19.3333V3.33333C27.3267 1.86666 26.1267 0.666664 24.66 0.666664ZM15.3267 16.6667H12.66V14H15.3267V16.6667ZM15.3267 10C15.3267 10.7333 14.7267 11.3333 13.9933 11.3333C13.26 11.3333 12.66 10.7333 12.66 10V7.33333C12.66 6.6 13.26 6 13.9933 6C14.7267 6 15.3267 6.6 15.3267 7.33333V10Z" fill="white"/>
</svg>
