<svg width="19" height="18" viewBox="0 0 19 18" fill="none" xmlns="http://www.w3.org/2000/svg">
<path d="M9.37727 1.5C5.23727 1.5 1.88477 4.86 1.88477 9C1.88477 13.14 5.23727 16.5 9.37727 16.5C13.5248 16.5 16.8848 13.14 16.8848 9C16.8848 4.86 13.5248 1.5 9.37727 1.5ZM11.7998 13.0425L9.38477 11.5875L6.96977 13.0425C6.68477 13.215 6.33227 12.96 6.40727 12.6375L7.04477 9.8925L4.92227 8.055C4.67477 7.8375 4.80977 7.425 5.13977 7.395L7.94477 7.155L9.03977 4.5675C9.16727 4.26 9.60227 4.26 9.72977 4.5675L10.8248 7.1475L13.6298 7.3875C13.9598 7.4175 14.0948 7.83 13.8398 8.0475L11.7173 9.885L12.3548 12.6375C12.4298 12.96 12.0848 13.215 11.7998 13.0425Z" fill="#5a57ff"/>
</svg>
