<svg width="24" height="24" viewBox="0 0 24 24" fill="none" xmlns="http://www.w3.org/2000/svg">
<path d="M22.8535 1.16313C22.0082 0.317863 20.6417 0.317864 19.7964 1.16313L12.0003 8.94327L4.20351 1.14646C3.35824 0.301197 1.99166 0.301197 1.1464 1.14646C0.301136 1.99172 0.301136 3.3583 1.1464 4.20357L8.94284 12L1.1464 19.7965C0.301136 20.6417 0.301135 22.0083 1.1464 22.8536C1.99166 23.6988 3.35824 23.6988 4.20351 22.8536L12 15.0571L19.7964 22.8536C20.6417 23.6988 22.0082 23.6988 22.8535 22.8536C23.6988 22.0083 23.6988 20.6417 22.8535 19.7965L15.0571 12L22.8535 4.20357C23.6821 3.37497 23.6821 1.99172 22.8535 1.16313Z" fill="#F85455" stroke="#F85455"/>
</svg>
