<svg width="13" height="12" viewBox="0 0 13 12" fill="none" xmlns="http://www.w3.org/2000/svg">
<path d="M1.54146 0.170625C1.31396 0.398125 1.31396 0.765625 1.54146 0.993125L7.18229 6.63396L6.35979 7.45646L4.29479 5.39729C4.06729 5.16979 3.69979 5.16979 3.47229 5.39729C3.24479 5.62479 3.24479 5.99229 3.47229 6.21979L5.94562 8.69312C6.17312 8.92062 6.54062 8.92062 6.76812 8.69312L8.00479 7.45646L11.4406 10.8923C11.6681 11.1198 12.0356 11.1198 12.2631 10.8923C12.4906 10.6648 12.4906 10.2973 12.2631 10.0698L2.36396 0.170625C2.13646 -0.056875 1.76896 -0.056875 1.54146 0.170625ZM9.65562 5.81146L12.129 3.33812C12.3565 3.11062 12.3565 2.73729 12.1231 2.50979C11.8956 2.28812 11.5281 2.28812 11.3006 2.51562L8.82729 4.98896L9.65562 5.81146ZM8.83312 2.50979C8.60562 2.28229 8.23812 2.28229 8.01062 2.50979L7.18229 3.33812L8.00479 4.16062L8.83312 3.33229C9.06062 3.10479 9.06062 2.73729 8.83312 2.50979ZM0.170625 6.21979L3.05812 9.10729L3.88062 8.28479L0.993125 5.39729C0.765625 5.16979 0.398125 5.16979 0.170625 5.39729C-0.056875 5.62479 -0.056875 5.99229 0.170625 6.21979Z" fill="#1D2939"/>
</svg>
