<svg width="18" height="18" viewBox="0 0 18 18" fill="none" xmlns="http://www.w3.org/2000/svg">
<path d="M8.9925 1.5C4.8525 1.5 1.5 4.86 1.5 9C1.5 13.14 4.8525 16.5 8.9925 16.5C13.14 16.5 16.5 13.14 16.5 9C16.5 4.86 13.14 1.5 8.9925 1.5ZM11.415 13.0425L9 11.5875L6.585 13.0425C6.3 13.215 5.9475 12.96 6.0225 12.6375L6.66 9.8925L4.5375 8.055C4.29 7.8375 4.425 7.425 4.755 7.395L7.56 7.155L8.655 4.5675C8.7825 4.26 9.2175 4.26 9.345 4.5675L10.44 7.1475L13.245 7.3875C13.575 7.4175 13.71 7.83 13.455 8.0475L11.3325 9.885L11.97 12.6375C12.045 12.96 11.7 13.215 11.415 13.0425Z" fill="#FFC657"/>
</svg>
