<svg width="26" height="18" viewBox="0 0 26 18" fill="none" xmlns="http://www.w3.org/2000/svg">
<path d="M18.625 9C20.35 9 21.7375 7.6 21.7375 5.875C21.7375 4.15 20.35 2.75 18.625 2.75C16.9 2.75 15.5 4.15 15.5 5.875C15.5 7.6 16.9 9 18.625 9ZM9.25 7.75C11.325 7.75 12.9875 6.075 12.9875 4C12.9875 1.925 11.325 0.25 9.25 0.25C7.175 0.25 5.5 1.925 5.5 4C5.5 6.075 7.175 7.75 9.25 7.75ZM18.625 11.5C16.3375 11.5 11.75 12.65 11.75 14.9375V16.5C11.75 17.1875 12.3125 17.75 13 17.75H24.25C24.9375 17.75 25.5 17.1875 25.5 16.5V14.9375C25.5 12.65 20.9125 11.5 18.625 11.5ZM9.25 10.25C6.3375 10.25 0.5 11.7125 0.5 14.625V16.5C0.5 17.1875 1.0625 17.75 1.75 17.75H9.25V14.9375C9.25 13.875 9.6625 12.0125 12.2125 10.6C11.125 10.375 10.075 10.25 9.25 10.25Z" fill="#333333"/>
</svg>
