<svg width="20" height="14" viewBox="0 0 20 14" fill="none" xmlns="http://www.w3.org/2000/svg">
<path d="M14.125 7.00004C15.39 7.00004 16.4075 5.97337 16.4075 4.70837C16.4075 3.44337 15.39 2.41671 14.125 2.41671C12.86 2.41671 11.8333 3.44337 11.8333 4.70837C11.8333 5.97337 12.86 7.00004 14.125 7.00004ZM7.24998 6.08337C8.77165 6.08337 9.99081 4.85504 9.99081 3.33337C9.99081 1.81171 8.77165 0.583374 7.24998 0.583374C5.72831 0.583374 4.49998 1.81171 4.49998 3.33337C4.49998 4.85504 5.72831 6.08337 7.24998 6.08337ZM14.125 8.83337C12.4475 8.83337 9.08331 9.67671 9.08331 11.3542V12.5C9.08331 13.0042 9.49581 13.4167 9.99998 13.4167H18.25C18.7541 13.4167 19.1666 13.0042 19.1666 12.5V11.3542C19.1666 9.67671 15.8025 8.83337 14.125 8.83337ZM7.24998 7.91671C5.11415 7.91671 0.833313 8.98921 0.833313 11.125V12.5C0.833313 13.0042 1.24581 13.4167 1.74998 13.4167H7.24998V11.3542C7.24998 10.575 7.55248 9.20921 9.42248 8.17337C8.62498 8.00837 7.85498 7.91671 7.24998 7.91671Z" fill="#5a57ff"/>
</svg>
