<svg id="Layer_1" data-name="Layer 1" xmlns="http://www.w3.org/2000/svg" viewBox="0 0 122.88 115.29"><defs><style>.cls-1{fill:#212121;}.cls-2{fill:#33a867;fill-rule:evenodd;}</style></defs><path class="cls-1" d="M45.22,30.83a5.78,5.78,0,0,1,2.9-3,6.83,6.83,0,0,1,4.66-.26,12.88,12.88,0,0,1,4.45,2.27,22,22,0,0,1,8.14,15.82,45.93,45.93,0,0,1-.1,7c-.13,1.64-.34,3.37-.63,5.16H81.57a18.21,18.21,0,0,1,7.64,1.94,12.43,12.43,0,0,1,4.69,4.12,10.55,10.55,0,0,1,1.71,6.31A14.93,14.93,0,0,1,94.08,76a18.42,18.42,0,0,1,.46,7,8.22,8.22,0,0,1-2.33,4.75A21.3,21.3,0,0,1,91,95.65a16.62,16.62,0,0,1-3.77,5.9,24,24,0,0,1-.75,4.21,14.4,14.4,0,0,1-2.1,4.52h0c-2.88,4.06-5.18,4-8.82,3.81-.51,0-1,0-1.89,0h-33a16,16,0,0,1-7.42-1.49,17.68,17.68,0,0,1-5.83-5.08L27,106.07V67.62l1.68-.45C32.9,66,36.24,62.39,38.85,58a64.87,64.87,0,0,0,5.83-13.95v-10a6.17,6.17,0,0,1,.54-3.25ZM3.38,63.6H19.73A3.39,3.39,0,0,1,23.11,67v44.93a3.39,3.39,0,0,1-3.38,3.38H3.38A3.39,3.39,0,0,1,0,111.91V67A3.39,3.39,0,0,1,3.38,63.6ZM50,31.87a1.82,1.82,0,0,0-.83,1.32V44.4l-.1.64a69.3,69.3,0,0,1-6.38,15.3C39.87,65,36.22,69.09,31.47,71v34.32a12.18,12.18,0,0,0,3.82,3.25,11.76,11.76,0,0,0,5.42,1h33c.59,0,1.35,0,2.07.06,2.16.08,3.52.14,5-1.92h0a9.93,9.93,0,0,0,1.43-3.14,20.11,20.11,0,0,0,.67-4.15l.69-1.48a12.6,12.6,0,0,0,3.27-4.83,17.75,17.75,0,0,0,.87-7.28l-.08-1.33,1.13-.7a3.44,3.44,0,0,0,1.38-2.51,14.87,14.87,0,0,0-.57-6l.18-1.63A11.34,11.34,0,0,0,91.13,70a6.15,6.15,0,0,0-1-3.68,8.06,8.06,0,0,0-3-2.61,13.58,13.58,0,0,0-5.63-1.43H59.26l.5-2.66c.48-2.58.83-5,1-7.37a42.55,42.55,0,0,0,.11-6.33,17.42,17.42,0,0,0-6.39-12.53,8.43,8.43,0,0,0-2.86-1.5,2.56,2.56,0,0,0-1.65,0Z"/><path class="cls-2" d="M94.91,0a6.33,6.33,0,0,1,3.84,1.2c1.51,1,3.2,2.84,5.29,4,2.94,1.68,8.38-.64,11.17,3.51A10.78,10.78,0,0,1,117,14.93a10.84,10.84,0,0,0,2.55,6.6c3.42,4.52,4.13,7.53,2.37,10.67-1.2,2.14-3.73,3.33-4.32,4.68-1.24,2.88.13,5.06-1.57,8.42A9,9,0,0,1,110.62,50c-2.05.66-4.11-.3-5.75.39-2.89,1.21-5,4-7.31,4.75a8.74,8.74,0,0,1-2.65.4,8.65,8.65,0,0,1-2.65-.4c-2.3-.72-4.43-3.53-7.32-4.75-1.64-.69-3.7.27-5.75-.39a9,9,0,0,1-5.44-4.65c-1.71-3.36-.33-5.54-1.57-8.42-.59-1.35-3.12-2.54-4.32-4.68-1.76-3.14-1-6.15,2.37-10.67a10.84,10.84,0,0,0,2.55-6.6A10.78,10.78,0,0,1,74.6,8.75c2.79-4.15,8.23-1.83,11.17-3.51,2.09-1.19,3.78-3.08,5.28-4A6.41,6.41,0,0,1,94.91,0ZM90.08,24.54,93.65,28l6.16-6.26c.61-.62,1-1.12,1.75-.34l2.44,2.5c.8.79.76,1.25,0,2l-9,8.79c-1.6,1.56-1.32,1.66-2.93.06L86,28.57A.69.69,0,0,1,86,27.48l2.83-2.94c.42-.45.76-.42,1.21,0Zm4.74-12A15.62,15.62,0,1,1,79.21,28.17,15.62,15.62,0,0,1,94.82,12.55Z"/></svg>