<svg width="32" height="32" viewBox="0 0 32 32" fill="none" xmlns="http://www.w3.org/2000/svg">
<path fill-rule="evenodd" clip-rule="evenodd" d="M0.343568 31.6561C0.531095 31.8435 0.785403 31.9488 1.05057 31.9488C1.31573 31.9488 1.57004 31.8435 1.75757 31.6561L9.94957 23.4641V29.0001C9.94957 29.2653 10.0549 29.5196 10.2425 29.7072C10.43 29.8947 10.6844 30.0001 10.9496 30.0001C11.2148 30.0001 11.4691 29.8947 11.6567 29.7072C11.8442 29.5196 11.9496 29.2653 11.9496 29.0001V21.0501C11.9496 20.7848 11.8442 20.5305 11.6567 20.3429C11.4691 20.1554 11.2148 20.0501 10.9496 20.0501H2.99957C2.73435 20.0501 2.48 20.1554 2.29246 20.3429C2.10492 20.5305 1.99957 20.7848 1.99957 21.0501C1.99957 21.3153 2.10492 21.5696 2.29246 21.7572C2.48 21.9447 2.73435 22.0501 2.99957 22.0501H8.53557L0.343568 30.2421C0.156097 30.4296 0.0507813 30.6839 0.0507812 30.9491C0.0507812 31.2142 0.156097 31.4685 0.343568 31.6561ZM31.6556 0.344056C31.468 0.156585 31.2137 0.0512695 30.9486 0.0512695C30.6834 0.0512695 30.4291 0.156585 30.2416 0.344056L22.0496 8.53606V3.00006C22.0496 2.73484 21.9442 2.48049 21.7567 2.29295C21.5691 2.10541 21.3148 2.00006 21.0496 2.00006C20.7843 2.00006 20.53 2.10541 20.3425 2.29295C20.1549 2.48049 20.0496 2.73484 20.0496 3.00006V10.9501C20.0496 11.2153 20.1549 11.4696 20.3425 11.6572C20.53 11.8447 20.7843 11.9501 21.0496 11.9501H28.9996C29.2648 11.9501 29.5191 11.8447 29.7067 11.6572C29.8942 11.4696 29.9996 11.2153 29.9996 10.9501C29.9996 10.6848 29.8942 10.4305 29.7067 10.2429C29.5191 10.0554 29.2648 9.95006 28.9996 9.95006H23.4636L31.6556 1.75806C31.843 1.57053 31.9484 1.31622 31.9484 1.05106C31.9484 0.785892 31.843 0.531584 31.6556 0.344056Z" fill="white"/>
</svg>
