<svg width="28" height="26" viewBox="0 0 28 26" fill="none" xmlns="http://www.w3.org/2000/svg">
<path fill-rule="evenodd" clip-rule="evenodd" d="M9.92189 16.5299C9.76226 16.3776 9.5458 16.292 9.32009 16.292C9.09439 16.292 8.87792 16.3776 8.7183 16.5299L1.74535 23.1859V18.6879C1.74535 18.4724 1.65567 18.2657 1.49604 18.1134C1.33641 17.961 1.11991 17.8754 0.894159 17.8754C0.668409 17.8754 0.451906 17.961 0.292277 18.1134C0.132647 18.2657 0.0429688 18.4724 0.0429688 18.6879V25.1473C0.0429688 25.3628 0.132647 25.5694 0.292277 25.7218C0.451906 25.8742 0.668409 25.9598 0.894159 25.9598H7.66112C7.88687 25.9598 8.10338 25.8742 8.26301 25.7218C8.42264 25.5694 8.51231 25.3628 8.51231 25.1473C8.51231 24.9318 8.42264 24.7251 8.26301 24.5727C8.10338 24.4204 7.88687 24.3348 7.66112 24.3348H2.94893L9.92189 17.6788C10.0815 17.5264 10.1711 17.3198 10.1711 17.1043C10.1711 16.8889 10.0815 16.6823 9.92189 16.5299ZM17.317 16.5299C17.4767 16.3776 17.6931 16.292 17.9188 16.292C18.1445 16.292 18.361 16.3776 18.5206 16.5299L25.4936 23.1859V18.6879C25.4936 18.4724 25.5832 18.2657 25.7429 18.1134C25.9025 17.961 26.119 17.8754 26.3448 17.8754C26.5705 17.8754 26.787 17.961 26.9466 18.1134C27.1063 18.2657 27.1959 18.4724 27.1959 18.6879V25.1473C27.1959 25.3628 27.1063 25.5694 26.9466 25.7218C26.787 25.8742 26.5705 25.9598 26.3448 25.9598H19.5778C19.352 25.9598 19.1355 25.8742 18.9759 25.7218C18.8163 25.5694 18.7266 25.3628 18.7266 25.1473C18.7266 24.9318 18.8163 24.7251 18.9759 24.5727C19.1355 24.4204 19.352 24.3348 19.5778 24.3348H24.29L17.317 17.6788C17.1575 17.5264 17.0678 17.3198 17.0678 17.1043C17.0678 16.8889 17.1575 16.6823 17.317 16.5299ZM17.317 9.47089C17.4767 9.62321 17.6931 9.70878 17.9188 9.70878C18.1445 9.70878 18.361 9.62321 18.5206 9.47089L25.4936 2.81489V7.31289C25.4936 7.52838 25.5832 7.73504 25.7429 7.88741C25.9025 8.03979 26.119 8.12539 26.3448 8.12539C26.5705 8.12539 26.787 8.03979 26.9466 7.88741C27.1063 7.73504 27.1959 7.52838 27.1959 7.31289V0.853516C27.1959 0.638027 27.1063 0.431365 26.9466 0.278991C26.787 0.126618 26.5705 0.0410156 26.3448 0.0410156H19.5778C19.352 0.0410156 19.1355 0.126618 18.9759 0.278991C18.8163 0.431365 18.7266 0.638027 18.7266 0.853516C18.7266 1.069 18.8163 1.27567 18.9759 1.42804C19.1355 1.58041 19.352 1.66602 19.5778 1.66602H24.29L17.317 8.32201C17.1575 8.47438 17.0678 8.68101 17.0678 8.89645C17.0678 9.1119 17.1575 9.31852 17.317 9.47089ZM9.92189 9.47089C9.76226 9.62321 9.5458 9.70878 9.32009 9.70878C9.09439 9.70878 8.87792 9.62321 8.7183 9.47089L1.74535 2.81489V7.31289C1.74535 7.52838 1.65567 7.73504 1.49604 7.88741C1.33641 8.03979 1.11991 8.12539 0.894159 8.12539C0.668409 8.12539 0.451906 8.03979 0.292277 7.88741C0.132647 7.73504 0.0429688 7.52838 0.0429688 7.31289V0.853516C0.0429688 0.638027 0.132647 0.431365 0.292277 0.278991C0.451906 0.126618 0.668409 0.0410156 0.894159 0.0410156H7.66112C7.88687 0.0410156 8.10338 0.126618 8.26301 0.278991C8.42264 0.431365 8.51231 0.638027 8.51231 0.853516C8.51231 1.069 8.42264 1.27567 8.26301 1.42804C8.10338 1.58041 7.88687 1.66602 7.66112 1.66602H2.94893L9.92189 8.32201C10.0815 8.47438 10.1711 8.68101 10.1711 8.89645C10.1711 9.1119 10.0815 9.31852 9.92189 9.47089Z" fill="white"/>
</svg>
