<svg width="22" height="28" viewBox="0 0 22 28" fill="none" xmlns="http://www.w3.org/2000/svg">
<path fill-rule="evenodd" clip-rule="evenodd" d="M1.5625 27.125C1.31386 27.125 1.0754 27.0262 0.899588 26.8504C0.723772 26.6746 0.625 26.4361 0.625 26.1875L0.625 1.8125C0.625 1.56386 0.723773 1.3254 0.899588 1.14959C1.0754 0.973772 1.31386 0.875 1.5625 0.875C1.81114 0.875 2.0496 0.973772 2.22541 1.14959C2.40123 1.3254 2.5 1.56386 2.5 1.8125L2.5 26.1875C2.5 26.4361 2.40123 26.6746 2.22541 26.8504C2.0496 27.0262 1.81114 27.125 1.5625 27.125ZM6.25 14C6.25 13.7514 6.34877 13.5129 6.52459 13.3371C6.7004 13.1613 6.93886 13.0625 7.1875 13.0625L18.0494 13.0625L14.0238 9.03875C13.8477 8.86271 13.7488 8.62395 13.7488 8.375C13.7488 8.12605 13.8477 7.88729 14.0238 7.71125C14.1998 7.53521 14.4385 7.43632 14.6875 7.43632C14.9365 7.43632 15.1752 7.53521 15.3513 7.71125L20.9763 13.3363C21.0636 13.4233 21.1328 13.5268 21.1801 13.6407C21.2273 13.7546 21.2517 13.8767 21.2517 14C21.2517 14.1233 21.2273 14.2454 21.1801 14.3593C21.1328 14.4732 21.0636 14.5767 20.9763 14.6637L15.3513 20.2888C15.1752 20.4648 14.9365 20.5637 14.6875 20.5637C14.4385 20.5637 14.1998 20.4648 14.0238 20.2888C13.8477 20.1127 13.7488 19.874 13.7488 19.625C13.7488 19.376 13.8477 19.1373 14.0238 18.9613L18.0494 14.9375L7.1875 14.9375C6.93886 14.9375 6.7004 14.8387 6.52459 14.6629C6.34877 14.4871 6.25 14.2486 6.25 14Z" fill="white"/>
</svg>
