<svg width="12" height="9" viewBox="0 0 12 9" fill="none" xmlns="http://www.w3.org/2000/svg">
<path d="M8.62484 4.49984C9.42984 4.49984 10.0773 3.8465 10.0773 3.0415C10.0773 2.2365 9.42984 1.58317 8.62484 1.58317C7.81984 1.58317 7.1665 2.2365 7.1665 3.0415C7.1665 3.8465 7.81984 4.49984 8.62484 4.49984ZM4.24984 3.9165C5.21817 3.9165 5.994 3.13484 5.994 2.1665C5.994 1.19817 5.21817 0.416504 4.24984 0.416504C3.2815 0.416504 2.49984 1.19817 2.49984 2.1665C2.49984 3.13484 3.2815 3.9165 4.24984 3.9165ZM8.62484 5.6665C7.55734 5.6665 5.4165 6.20317 5.4165 7.27067V7.99984C5.4165 8.32067 5.679 8.58317 5.99984 8.58317H11.2498C11.5707 8.58317 11.8332 8.32067 11.8332 7.99984V7.27067C11.8332 6.20317 9.69234 5.6665 8.62484 5.6665ZM4.24984 5.08317C2.89067 5.08317 0.166504 5.76567 0.166504 7.12484V7.99984C0.166504 8.32067 0.429004 8.58317 0.749837 8.58317H4.24984V7.27067C4.24984 6.77484 4.44234 5.90567 5.63234 5.2465C5.12484 5.1415 4.63484 5.08317 4.24984 5.08317Z" fill="#0FD08C"/>
</svg>
