<svg width="16" height="16" viewBox="0 0 16 16" fill="none" xmlns="http://www.w3.org/2000/svg">
<path d="M15.502 1.93991C15.5954 2.03363 15.6479 2.16057 15.6479 2.2929C15.6479 2.42524 15.5954 2.55218 15.502 2.6459L14.459 3.6899L12.459 1.68991L13.502 0.645905C13.5958 0.552169 13.7229 0.499512 13.8555 0.499512C13.9881 0.499512 14.1152 0.552169 14.209 0.645905L15.502 1.93891V1.93991ZM13.752 4.3959L11.752 2.3959L4.939 9.2099C4.88396 9.26493 4.84253 9.33204 4.818 9.4059L4.013 11.8199C3.9984 11.8639 3.99633 11.9111 4.00701 11.9562C4.0177 12.0014 4.04072 12.0426 4.07351 12.0754C4.10629 12.1082 4.14755 12.1312 4.19267 12.1419C4.23779 12.1526 4.28499 12.1505 4.329 12.1359L6.743 11.3309C6.81676 11.3067 6.88387 11.2656 6.939 11.2109L13.752 4.3959Z" fill="#344054"/>
<path fill-rule="evenodd" clip-rule="evenodd" d="M1 13.4999C1 13.8977 1.15804 14.2793 1.43934 14.5606C1.72064 14.8419 2.10218 14.9999 2.5 14.9999H13.5C13.8978 14.9999 14.2794 14.8419 14.5607 14.5606C14.842 14.2793 15 13.8977 15 13.4999V7.49991C15 7.3673 14.9473 7.24012 14.8536 7.14635C14.7598 7.05258 14.6326 6.99991 14.5 6.99991C14.3674 6.99991 14.2402 7.05258 14.1464 7.14635C14.0527 7.24012 14 7.3673 14 7.49991V13.4999C14 13.6325 13.9473 13.7597 13.8536 13.8535C13.7598 13.9472 13.6326 13.9999 13.5 13.9999H2.5C2.36739 13.9999 2.24021 13.9472 2.14645 13.8535C2.05268 13.7597 2 13.6325 2 13.4999V2.4999C2 2.3673 2.05268 2.24012 2.14645 2.14635C2.24021 2.05258 2.36739 1.9999 2.5 1.9999H9C9.13261 1.9999 9.25979 1.94723 9.35355 1.85346C9.44732 1.75969 9.5 1.63251 9.5 1.4999C9.5 1.3673 9.44732 1.24012 9.35355 1.14635C9.25979 1.05258 9.13261 0.999905 9 0.999905H2.5C2.10218 0.999905 1.72064 1.15794 1.43934 1.43924C1.15804 1.72055 1 2.10208 1 2.4999V13.4999Z" fill="#344054"/>
</svg>
