<svg width="15" height="15" viewBox="0 0 15 15" fill="none" xmlns="http://www.w3.org/2000/svg">
<path d="M14.502 1.94039C14.5954 2.03412 14.6479 2.16106 14.6479 2.29339C14.6479 2.42573 14.5954 2.55267 14.502 2.64639L13.459 3.69039L11.459 1.69039L12.502 0.646393C12.5958 0.552658 12.7229 0.5 12.8555 0.5C12.9881 0.5 13.1152 0.552658 13.209 0.646393L14.502 1.93939V1.94039ZM12.752 4.39639L10.752 2.39639L3.939 9.21039C3.88396 9.26542 3.84253 9.33253 3.818 9.40639L3.013 11.8204C2.9984 11.8644 2.99633 11.9116 3.00701 11.9567C3.0177 12.0018 3.04072 12.0431 3.07351 12.0759C3.10629 12.1087 3.14755 12.1317 3.19267 12.1424C3.23779 12.1531 3.28499 12.151 3.329 12.1364L5.743 11.3314C5.81676 11.3072 5.88387 11.2661 5.939 11.2114L12.752 4.39639Z" fill="white"/>
<path fill-rule="evenodd" clip-rule="evenodd" d="M0 13.5004C0 13.8982 0.158035 14.2797 0.43934 14.5611C0.720644 14.8424 1.10218 15.0004 1.5 15.0004H12.5C12.8978 15.0004 13.2794 14.8424 13.5607 14.5611C13.842 14.2797 14 13.8982 14 13.5004V7.50039C14 7.36778 13.9473 7.24061 13.8536 7.14684C13.7598 7.05307 13.6326 7.00039 13.5 7.00039C13.3674 7.00039 13.2402 7.05307 13.1464 7.14684C13.0527 7.24061 13 7.36778 13 7.50039V13.5004C13 13.633 12.9473 13.7602 12.8536 13.8539C12.7598 13.9477 12.6326 14.0004 12.5 14.0004H1.5C1.36739 14.0004 1.24021 13.9477 1.14645 13.8539C1.05268 13.7602 1 13.633 1 13.5004V2.50039C1 2.36778 1.05268 2.24061 1.14645 2.14684C1.24021 2.05307 1.36739 2.00039 1.5 2.00039H8C8.13261 2.00039 8.25979 1.94771 8.35355 1.85395C8.44732 1.76018 8.5 1.633 8.5 1.50039C8.5 1.36779 8.44732 1.24061 8.35355 1.14684C8.25979 1.05307 8.13261 1.00039 8 1.00039H1.5C1.10218 1.00039 0.720644 1.15843 0.43934 1.43973C0.158035 1.72104 0 2.10257 0 2.50039V13.5004Z" fill="white"/>
</svg>
