<svg width="20" height="14" viewBox="0 0 20 14" fill="none" xmlns="http://www.w3.org/2000/svg">
<path d="M13.125 6.99902C13.125 7.82782 12.7958 8.62268 12.2097 9.20873C11.6237 9.79478 10.8288 10.124 10 10.124C9.1712 10.124 8.37634 9.79478 7.79029 9.20873C7.20424 8.62268 6.875 7.82782 6.875 6.99902C6.875 6.17022 7.20424 5.37537 7.79029 4.78931C8.37634 4.20326 9.1712 3.87402 10 3.87402C10.8288 3.87402 11.6237 4.20326 12.2097 4.78931C12.7958 5.37537 13.125 6.17022 13.125 6.99902Z" fill="#344054"/>
<path d="M0 6.99902C0 6.99902 3.75 0.124023 10 0.124023C16.25 0.124023 20 6.99902 20 6.99902C20 6.99902 16.25 13.874 10 13.874C3.75 13.874 0 6.99902 0 6.99902ZM10 11.374C11.1603 11.374 12.2731 10.9131 13.0936 10.0926C13.9141 9.27214 14.375 8.15935 14.375 6.99902C14.375 5.8387 13.9141 4.7259 13.0936 3.90543C12.2731 3.08496 11.1603 2.62402 10 2.62402C8.83968 2.62402 7.72688 3.08496 6.90641 3.90543C6.08594 4.7259 5.625 5.8387 5.625 6.99902C5.625 8.15935 6.08594 9.27214 6.90641 10.0926C7.72688 10.9131 8.83968 11.374 10 11.374Z" fill="#344054"/>
</svg>
