<svg width="18" height="18" viewBox="0 0 18 18" fill="none" xmlns="http://www.w3.org/2000/svg">
<path d="M9.00033 0.666992C4.40033 0.666992 0.666992 4.40033 0.666992 9.00033C0.666992 13.6003 4.40033 17.3337 9.00033 17.3337C13.6003 17.3337 17.3337 13.6003 17.3337 9.00033C17.3337 4.40033 13.6003 0.666992 9.00033 0.666992ZM6.74199 12.5753L3.75033 9.58366C3.42533 9.25866 3.42533 8.73366 3.75033 8.40866C4.07533 8.08366 4.60033 8.08366 4.92533 8.40866L7.33366 10.8087L13.067 5.07533C13.392 4.75033 13.917 4.75033 14.242 5.07533C14.567 5.40033 14.567 5.92533 14.242 6.25033L7.91699 12.5753C7.60033 12.9003 7.06699 12.9003 6.74199 12.5753Z" fill="#344054"/>
</svg>
