<svg width="16" height="18" viewBox="0 0 16 18" fill="none" xmlns="http://www.w3.org/2000/svg">
<path d="M10.9167 10.7882C10.9167 12.4549 8.83333 13.7049 8.83333 14.9549H7.16667C7.16667 13.7049 5.08333 12.4549 5.08333 10.7882C5.08333 9.17986 6.39167 7.87153 8 7.87153C9.60833 7.87153 10.9167 9.17986 10.9167 10.7882ZM8.83333 15.7882H7.16667V16.2049C7.16667 16.6632 7.54167 17.0382 8 17.0382C8.45833 17.0382 8.83333 16.6632 8.83333 16.2049V15.7882ZM13.8333 10.3715C13.8333 11.5299 13.4917 12.6132 12.9 13.5215C12.6917 13.8465 12.7417 14.2799 13.0167 14.5549C13.3833 14.9215 14.0167 14.8715 14.3 14.4299C15.0583 13.2632 15.5 11.8715 15.5 10.3715C15.5 8.40486 14.7417 6.61319 13.5 5.27153C13.175 4.92153 12.625 4.91319 12.2917 5.24653C11.975 5.56319 11.975 6.07153 12.275 6.40486C13.2417 7.44653 13.8333 8.83819 13.8333 10.3715ZM11.0417 3.41319L8.71667 1.08819C8.45 0.821526 8 1.00486 8 1.37986V2.87153C3.85833 2.87153 0.5 6.22986 0.5 10.3715C0.5 11.8715 0.941667 13.2632 1.7 14.4382C1.98333 14.8799 2.61667 14.9299 2.98333 14.5632C3.25833 14.2882 3.30833 13.8632 3.1 13.5382C1.94167 11.7465 1.73333 9.28819 3.20833 6.87153C4.20833 5.24653 6.09167 4.37986 8 4.53819V6.02986C8 6.40486 8.45 6.58819 8.70833 6.32153L11.0333 3.99653C11.2 3.83819 11.2 3.57153 11.0417 3.41319Z" fill="white"/>
</svg>
