<svg width="24" height="24" viewBox="0 0 24 24" fill="none" xmlns="http://www.w3.org/2000/svg">
<path d="M22.8537 1.16331C22.0085 0.318047 20.6419 0.318047 19.7966 1.16331L12.0006 8.94345L4.20375 1.14664C3.35849 0.30138 1.9919 0.30138 1.14664 1.14664C0.30138 1.9919 0.30138 3.35849 1.14664 4.20375L8.94309 12.0002L1.14664 19.7966C0.30138 20.6419 0.301379 22.0085 1.14664 22.8537C1.9919 23.699 3.35849 23.699 4.20375 22.8537L12.0002 15.0573L19.7966 22.8537C20.6419 23.699 22.0085 23.699 22.8537 22.8537C23.699 22.0085 23.699 20.6419 22.8537 19.7966L15.0573 12.0002L22.8537 4.20375C23.6823 3.37515 23.6823 1.9919 22.8537 1.16331Z" fill="#F85455" stroke="#F85455"/>
</svg>
