<svg width="18" height="14" viewBox="0 0 18 14" fill="none" xmlns="http://www.w3.org/2000/svg">
<path d="M1.92102 5.68691C1.80436 7.82858 3.30436 9.62858 5.31269 10.0036L4.65436 9.34525C4.32936 9.02025 4.32936 8.49525 4.65436 8.17025C4.97936 7.84525 5.50436 7.84525 5.82936 8.17025L7.98769 10.3286C8.31269 10.6536 8.31269 11.1786 7.98769 11.5036L5.83769 13.6702C5.51269 13.9952 4.98769 13.9952 4.66269 13.6702C4.33769 13.3452 4.33769 12.8202 4.66269 12.4952L5.39602 11.7619V11.7119C2.36269 11.3536 0.0376903 8.67025 0.271024 5.48691C0.48769 2.40358 3.20436 0.0869141 6.29602 0.0869141H7.74602C8.20436 0.0869141 8.57936 0.461914 8.57936 0.920247C8.57936 1.37858 8.20436 1.75358 7.74602 1.75358H6.26269C4.01269 1.75358 2.03769 3.45358 1.92102 5.68691Z" fill="white"/>
<path d="M11.9127 5.92025H16.0794C16.996 5.92025 17.746 5.17025 17.746 4.25358V1.75358C17.746 0.836914 16.996 0.0869141 16.0794 0.0869141H11.9127C10.996 0.0869141 10.246 0.836914 10.246 1.75358V4.25358C10.246 5.17025 10.996 5.92025 11.9127 5.92025ZM16.0794 4.25358H11.9127V1.75358H16.0794V4.25358Z" fill="white"/>
<path d="M16.0794 13.4202H11.9127C10.996 13.4202 10.246 12.6702 10.246 11.7536V9.25358C10.246 8.33691 10.996 7.58691 11.9127 7.58691H16.0794C16.996 7.58691 17.746 8.33691 17.746 9.25358V11.7536C17.746 12.6702 16.996 13.4202 16.0794 13.4202Z" fill="white"/>
</svg>
