<svg width="15" height="15" viewBox="0 0 15 15" fill="none" xmlns="http://www.w3.org/2000/svg">
<path d="M10.4725 9.28548H9.84708L9.62541 9.07173C10.4012 8.16923 10.8683 6.99756 10.8683 5.72298C10.8683 2.8809 8.56458 0.577148 5.72249 0.577148C2.88041 0.577148 0.57666 2.8809 0.57666 5.72298C0.57666 8.56506 2.88041 10.8688 5.72249 10.8688C6.99708 10.8688 8.16874 10.4017 9.07124 9.6259L9.28499 9.84756V10.473L13.2433 14.4234L14.4229 13.2438L10.4725 9.28548ZM5.72249 9.28548C3.75124 9.28548 2.15999 7.69423 2.15999 5.72298C2.15999 3.75173 3.75124 2.16048 5.72249 2.16048C7.69374 2.16048 9.28499 3.75173 9.28499 5.72298C9.28499 7.69423 7.69374 9.28548 5.72249 9.28548Z" fill="#344054"/>
<path d="M7.70166 6.11881H6.11833V7.70215H5.32666V6.11881H3.74333V5.32715H5.32666V3.74381H6.11833V5.32715H7.70166V6.11881Z" fill="#344054"/>
</svg>
