<svg width="16" height="16" viewBox="0 0 16 16" fill="none" xmlns="http://www.w3.org/2000/svg">
<path d="M11.3093 10.0598H10.651L10.4177 9.83477C11.4177 8.6681 11.9343 7.07643 11.651 5.38477C11.2593 3.0681 9.32599 1.2181 6.99265 0.934766C3.46765 0.501433 0.509322 3.4681 0.934321 6.9931C1.21765 9.32643 3.06765 11.2598 5.38432 11.6514C7.07599 11.9348 8.66765 11.4181 9.83432 10.4181L10.0593 10.6514V11.3098L13.6093 14.8514C13.951 15.1931 14.501 15.1931 14.8427 14.8514L14.851 14.8431C15.1927 14.5014 15.1927 13.9514 14.851 13.6098L11.3093 10.0598ZM6.30932 10.0598C4.23432 10.0598 2.55932 8.38477 2.55932 6.30977C2.55932 4.23477 4.23432 2.55977 6.30932 2.55977C8.38432 2.55977 10.0593 4.23477 10.0593 6.30977C10.0593 8.38477 8.38432 10.0598 6.30932 10.0598ZM6.30932 4.22643C6.07599 4.22643 5.89265 4.40977 5.89265 4.6431V5.8931H4.64265C4.40932 5.8931 4.22599 6.07643 4.22599 6.30977C4.22599 6.5431 4.40932 6.72643 4.64265 6.72643H5.89265V7.97643C5.89265 8.20977 6.07599 8.3931 6.30932 8.3931C6.54265 8.3931 6.72599 8.20977 6.72599 7.97643V6.72643H7.97599C8.20932 6.72643 8.39265 6.5431 8.39265 6.30977C8.39265 6.07643 8.20932 5.8931 7.97599 5.8931H6.72599V4.6431C6.72599 4.40977 6.54265 4.22643 6.30932 4.22643Z" fill="white"/>
</svg>
