<svg width="18" height="19" viewBox="0 0 18 19" fill="none" xmlns="http://www.w3.org/2000/svg">
<path d="M15.75 1.33594C16.0484 1.33594 16.3345 1.45446 16.5455 1.66544C16.7565 1.87642 16.875 2.16257 16.875 2.46094V15.9609C16.875 16.2593 16.7565 16.5455 16.5455 16.7564C16.3345 16.9674 16.0484 17.0859 15.75 17.0859H2.25C1.95163 17.0859 1.66548 16.9674 1.4545 16.7564C1.24353 16.5455 1.125 16.2593 1.125 15.9609V2.46094C1.125 2.16257 1.24353 1.87642 1.4545 1.66544C1.66548 1.45446 1.95163 1.33594 2.25 1.33594H15.75ZM2.25 0.210938C1.65326 0.210938 1.08097 0.44799 0.65901 0.869947C0.237053 1.2919 0 1.8642 0 2.46094V15.9609C0 16.5577 0.237053 17.13 0.65901 17.5519C1.08097 17.9739 1.65326 18.2109 2.25 18.2109H15.75C16.3467 18.2109 16.919 17.9739 17.341 17.5519C17.7629 17.13 18 16.5577 18 15.9609V2.46094C18 1.8642 17.7629 1.2919 17.341 0.869947C16.919 0.44799 16.3467 0.210938 15.75 0.210938H2.25Z" fill="white"/>
<path d="M5.91188 6.72019C5.91034 6.75652 5.91624 6.79278 5.92924 6.82674C5.94223 6.86071 5.96203 6.89165 5.98742 6.91768C6.01282 6.94371 6.04327 6.96426 6.0769 6.97809C6.11054 6.99191 6.14664 6.99871 6.183 6.99806H7.11112C7.26638 6.99806 7.39012 6.87094 7.41037 6.71681C7.51162 5.97881 8.01787 5.44106 8.92013 5.44106C9.69187 5.44106 10.3984 5.82694 10.3984 6.75506C10.3984 7.46944 9.97762 7.79794 9.31275 8.29744C8.55562 8.84756 7.956 9.48994 7.99875 10.5328L8.00212 10.7769C8.00331 10.8507 8.03346 10.9211 8.08608 10.9729C8.13869 11.0247 8.20956 11.0537 8.28337 11.0537H9.19575C9.27034 11.0537 9.34188 11.0241 9.39462 10.9713C9.44737 10.9186 9.477 10.847 9.477 10.7724V10.6543C9.477 9.84656 9.78413 9.61144 10.6132 8.98256C11.2984 8.46169 12.0128 7.88344 12.0128 6.66956C12.0128 4.96969 10.5772 4.14844 9.00562 4.14844C7.58025 4.14844 6.01875 4.81219 5.91188 6.72019ZM7.6635 13.2036C7.6635 13.8032 8.14163 14.2464 8.79975 14.2464C9.48487 14.2464 9.95625 13.8032 9.95625 13.2036C9.95625 12.5826 9.48375 12.1461 8.79862 12.1461C8.14163 12.1461 7.6635 12.5826 7.6635 13.2036Z" fill="white"/>
</svg>
