<svg width="14" height="18" viewBox="0 0 14 18" fill="none" xmlns="http://www.w3.org/2000/svg">
<path d="M6.96861 3.70193V1.37693C6.96861 1.00193 6.51861 0.818596 6.26028 1.08526L3.09361 4.2436C2.92694 4.41026 2.92694 4.6686 3.09361 4.83526L6.25194 7.9936C6.51861 8.25193 6.96861 8.0686 6.96861 7.6936V5.3686C10.0769 5.3686 12.5353 8.2186 11.8519 11.4436C11.4603 13.3353 9.92694 14.8603 8.04361 15.2519C5.06861 15.8769 2.41861 13.8353 2.01861 11.0769C1.96028 10.6769 1.61028 10.3686 1.20194 10.3686C0.701944 10.3686 0.301944 10.8103 0.368611 11.3103C0.885277 14.9686 4.36861 17.6769 8.31028 16.9103C10.9103 16.4019 13.0019 14.3103 13.5103 11.7103C14.3353 7.43526 11.0853 3.70193 6.96861 3.70193Z" fill="white"/>
</svg>
