<svg width="18" height="14" viewBox="0 0 18 14" fill="none" xmlns="http://www.w3.org/2000/svg">
<path d="M15.75 0.25H2.25C1.425 0.25 0.75 0.925 0.75 1.75V4H2.25V1.75H15.75V12.25H10.5V13.75H15.75C16.575 13.75 17.25 13.075 17.25 12.25V1.75C17.25 0.925 16.575 0.25 15.75 0.25ZM0.75 11.5V13.75H3C3 12.505 1.995 11.5 0.75 11.5ZM0.75 8.5V10C2.82 10 4.5 11.68 4.5 13.75H6C6 10.8475 3.6525 8.5 0.75 8.5ZM0.75 5.5V7C4.4775 7 7.5 10.0225 7.5 13.75H9C9 9.19 5.3025 5.5 0.75 5.5ZM8.25 6.3175V7.8175L10.875 9.25L13.5 7.8175V6.3175L10.875 7.75L8.25 6.3175ZM10.875 2.5L6.75 4.75L10.875 7L15 4.75L10.875 2.5Z" fill="white"/>
</svg>
