<svg width="21" height="21" viewBox="0 0 21 21" fill="none" xmlns="http://www.w3.org/2000/svg">
<path d="M14.9168 6.0835C13.6981 4.86475 12.1043 4.25016 10.5002 4.25016V10.5002L6.0835 14.9168C8.521 17.3543 12.4793 17.3543 14.9272 14.9168C17.3647 12.4793 17.3647 8.521 14.9168 6.0835ZM10.5002 0.0834961C4.75016 0.0834961 0.0834961 4.75016 0.0834961 10.5002C0.0834961 16.2502 4.75016 20.9168 10.5002 20.9168C16.2502 20.9168 20.9168 16.2502 20.9168 10.5002C20.9168 4.75016 16.2502 0.0834961 10.5002 0.0834961ZM10.5002 18.8335C5.896 18.8335 2.16683 15.1043 2.16683 10.5002C2.16683 5.896 5.896 2.16683 10.5002 2.16683C15.1043 2.16683 18.8335 5.896 18.8335 10.5002C18.8335 15.1043 15.1043 18.8335 10.5002 18.8335Z" fill="#5A57FF"/>
</svg>
