<svg width="16" height="16" viewBox="0 0 16 16" fill="none" xmlns="http://www.w3.org/2000/svg">
<path d="M13.8333 0.5H2.16667C1.25 0.5 0.5 1.25 0.5 2.16667V13.8333C0.5 14.75 1.25 15.5 2.16667 15.5H13.8333C14.75 15.5 15.5 14.75 15.5 13.8333V2.16667C15.5 1.25 14.75 0.5 13.8333 0.5ZM4.66667 12.1667C4.20833 12.1667 3.83333 11.7917 3.83333 11.3333V7.16667C3.83333 6.70833 4.20833 6.33333 4.66667 6.33333C5.125 6.33333 5.5 6.70833 5.5 7.16667V11.3333C5.5 11.7917 5.125 12.1667 4.66667 12.1667ZM8 12.1667C7.54167 12.1667 7.16667 11.7917 7.16667 11.3333V4.66667C7.16667 4.20833 7.54167 3.83333 8 3.83333C8.45833 3.83333 8.83333 4.20833 8.83333 4.66667V11.3333C8.83333 11.7917 8.45833 12.1667 8 12.1667ZM11.3333 12.1667C10.875 12.1667 10.5 11.7917 10.5 11.3333V9.66667C10.5 9.20833 10.875 8.83333 11.3333 8.83333C11.7917 8.83333 12.1667 9.20833 12.1667 9.66667V11.3333C12.1667 11.7917 11.7917 12.1667 11.3333 12.1667Z" fill="#344054"/>
</svg>
