<svg version="1.2" xmlns="http://www.w3.org/2000/svg" viewBox="0 0 136 136" width="136" height="136"><style>.a{fill:#0fd08c}.b{fill:#f8971e}.c{fill:#f85455}.d{fill:#3778f8}</style><path class="a" d="m17.4 66.8c-4.1-0.1-7.4-3.5-6.7-7.6 1.5-10 5.7-19.5 12.2-27.5 6.4-8 14.8-14 24.3-17.7 3.9-1.4 7.9 1.1 8.9 5.1l6.2 25.6c0.9 4-1.7 8-4.9 10.6q-1.3 1-2.4 2.4-1.1 1.3-1.9 2.9c-1.9 3.6-5.2 7-9.3 6.9z"/><path class="b" d="m69.3 17.7c0.1-4.1 3.5-7.4 7.6-6.8 10 1.6 19.5 5.8 27.5 12.2 8 6.5 14.1 14.9 17.7 24.4 1.4 3.9-1.1 7.9-5.1 8.9l-8 1.9c-4 1-8-1.5-9.8-5.2-2.2-4.6-5.4-8.7-9.4-11.9-4-3.3-8.6-5.6-13.6-6.8-4-1-7.3-4.3-7.2-8.4z"/><path class="c" d="m66.6 118.7c-0.1 4.1-3.6 7.4-7.6 6.7-10.1-1.6-19.6-5.8-27.6-12.3-8-6.4-14.1-14.9-17.7-24.5-1.4-3.8 1.1-7.8 5.1-8.8l8-1.9c4-0.9 8 1.6 9.8 5.3 2.2 4.6 5.4 8.7 9.4 12 4 3.2 8.7 5.5 13.6 6.7 4 1 7.3 4.4 7.2 8.5z"/><path class="d" d="m118.4 69.5c4.1 0.1 7.4 3.6 6.8 7.6-1.6 10.1-5.8 19.6-12.3 27.6-6.4 7.9-14.9 14-24.4 17.6-3.8 1.5-7.9-1-8.8-5l-2-8.1c-0.9-4 1.6-7.9 5.3-9.7 4.6-2.2 8.7-5.4 11.9-9.4 3.3-4 5.6-8.7 6.8-13.6 1-4 4.3-7.3 8.4-7.2z"/></svg>